{"asset":{"version":"2.0","generator":"Blockbench 5.1.1 glTF exporter"},"scenes":[{"nodes":[8],"name":"blockbench_export"}],"scene":0,"nodes":[{"translation":[0,0.0625,0],"name":"cylinder","mesh":0},{"rotation":[-0.7071067811865475,0,0,0.7071067811865476],"translation":[0,0.25,0.125],"name":"cylinder","mesh":1},{"translation":[0,0.09375,-0.1875],"name":"cylinder","mesh":2},{"rotation":[-0.7071067811865475,0,0,0.7071067811865476],"translation":[0,0.4375,0.359375],"name":"cylinder","mesh":3},{"translation":[0,0.28125,0.171875],"name":"cylinder","mesh":4},{"translation":[0.140625,-0.21875,1.140625],"name":"group2"},{"rotation":[0,0.9978589232386035,0,0.06540312923014305],"translation":[0.375,0,0.0625],"name":"group4"},{"translation":[-0.1875,-0.36875,-0.390625],"name":"group3","children":[6]},{"name":"Desert props","children":[0,1,2,3,4,5,7]}],"bufferViews":[{"buffer":0,"byteOffset":0,"byteLength":504,"target":34962,"byteStride":12},{"buffer":0,"byteOffset":504,"byteLength":504,"target":34962,"byteStride":12},{"buffer":0,"byteOffset":1008,"byteLength":336,"target":34962,"byteStride":8},{"buffer":0,"byteOffset":1344,"byteLength":108,"target":34963},{"buffer":0,"byteOffset":1452,"byteLength":720,"target":34962,"byteStride":12},{"buffer":0,"byteOffset":2172,"byteLength":720,"target":34962,"byteStride":12},{"buffer":0,"byteOffset":2892,"byteLength":480,"target":34962,"byteStride":8},{"buffer":0,"byteOffset":3372,"byteLength":144,"target":34963},{"buffer":0,"byteOffset":3516,"byteLength":720,"target":34962,"byteStride":12},{"buffer":0,"byteOffset":4236,"byteLength":720,"target":34962,"byteStride":12},{"buffer":0,"byteOffset":4956,"byteLength":480,"target":34962,"byteStride":8},{"buffer":0,"byteOffset":5436,"byteLength":144,"target":34963},{"buffer":0,"byteOffset":5580,"byteLength":720,"target":34962,"byteStride":12},{"buffer":0,"byteOffset":6300,"byteLength":720,"target":34962,"byteStride":12},{"buffer":0,"byteOffset":7020,"byteLength":480,"target":34962,"byteStride":8},{"buffer":0,"byteOffset":7500,"byteLength":144,"target":34963},{"buffer":0,"byteOffset":7644,"byteLength":720,"target":34962,"byteStride":12},{"buffer":0,"byteOffset":8364,"byteLength":720,"target":34962,"byteStride":12},{"buffer":0,"byteOffset":9084,"byteLength":480,"target":34962,"byteStride":8},{"buffer":0,"byteOffset":9564,"byteLength":144,"target":34963}],"buffers":[{"byteLength":9708,"uri":"data:application/octet-stream;base64,"}],"accessors":[{"bufferView":0,"componentType":5126,"count":42,"max":[0.07735026627779007,0.609375,0.0625],"min":[-0.07735026627779007,-0.0625,-0.0625],"type":"VEC3"},{"bufferView":1,"componentType":5126,"count":42,"max":[0.8503585457801819,0.8143623471260071,1],"min":[-0.8503585457801819,0,-1],"type":"VEC3"},{"bufferView":2,"componentType":5126,"count":42,"max":[0.4827963709831238,0.45703125],"min":[0,0],"type":"VEC2"},{"bufferView":3,"componentType":5123,"count":54,"max":[41],"min":[0],"type":"SCALAR"},{"bufferView":4,"componentType":5126,"count":60,"max":[0.04610027000308037,0.34375,0.03125],"min":[-0.04610027000308037,0.15625,-0.03125],"type":"VEC3"},{"bufferView":5,"componentType":5126,"count":60,"max":[0.8047627806663513,1,1],"min":[-0.8047627806663513,-1,-1],"type":"VEC3"},{"bufferView":6,"componentType":5126,"count":60,"max":[0.5469323396682739,0.5703125],"min":[0.125,0],"type":"VEC2"},{"bufferView":7,"componentType":5123,"count":72,"max":[59],"min":[0],"type":"SCALAR"},{"bufferView":8,"componentType":5126,"count":60,"max":[0.04610027000308037,0.375,0.03125],"min":[-0.04610027000308037,0.15625,-0.03125],"type":"VEC3"},{"bufferView":9,"componentType":5126,"count":60,"max":[0.8047627806663513,0.764829158782959,1],"min":[-0.8047627806663513,-1,-1],"type":"VEC3"},{"bufferView":10,"componentType":5126,"count":60,"max":[0.5736528635025024,0.5625],"min":[0.03125,0.0625],"type":"VEC2"},{"bufferView":11,"componentType":5123,"count":72,"max":[59],"min":[0],"type":"SCALAR"},{"bufferView":12,"componentType":5126,"count":60,"max":[0.04610027000308037,0.34375,0.03125],"min":[-0.04610027000308037,0.15625,-0.03125],"type":"VEC3"},{"bufferView":13,"componentType":5126,"count":60,"max":[0.9729137420654297,1,1],"min":[-0.9729137420654297,-1,-1],"type":"VEC3"},{"bufferView":14,"componentType":5126,"count":60,"max":[0.5388687252998352,0.5703125],"min":[0.00019375000556465238,0.28125],"type":"VEC2"},{"bufferView":15,"componentType":5123,"count":72,"max":[59],"min":[0],"type":"SCALAR"},{"bufferView":16,"componentType":5126,"count":60,"max":[0.04610027000308037,0.375,0.03125],"min":[-0.04610027000308037,0.15625,-0.03125],"type":"VEC3"},{"bufferView":17,"componentType":5126,"count":60,"max":[0.8047627806663513,0.764829158782959,1],"min":[-0.8047627806663513,-1,-1],"type":"VEC3"},{"bufferView":18,"componentType":5126,"count":60,"max":[0.5736528635025024,0.5625],"min":[0.0625,0.03125],"type":"VEC2"},{"bufferView":19,"componentType":5123,"count":72,"max":[59],"min":[0],"type":"SCALAR"}],"materials":[{"pbrMetallicRoughness":{"metallicFactor":0,"roughnessFactor":1,"baseColorTexture":{"index":0}},"alphaMode":"MASK","alphaCutoff":0.05,"doubleSided":true}],"textures":[{"sampler":0,"source":0,"name":"Desert_props"}],"samplers":[{"magFilter":9728,"minFilter":9728,"wrapS":33071,"wrapT":33071}],"images":[{"mimeType":"image/png","uri":"data:image/png;base64,"}],"meshes":[{"primitives":[{"mode":4,"attributes":{"POSITION":0,"NORMAL":1,"TEXCOORD_0":2},"indices":3,"material":0}]},{"primitives":[{"mode":4,"attributes":{"POSITION":4,"NORMAL":5,"TEXCOORD_0":6},"indices":7,"material":0}]},{"primitives":[{"mode":4,"attributes":{"POSITION":8,"NORMAL":9,"TEXCOORD_0":10},"indices":11,"material":0}]},{"primitives":[{"mode":4,"attributes":{"POSITION":12,"NORMAL":13,"TEXCOORD_0":14},"indices":15,"material":0}]},{"primitives":[{"mode":4,"attributes":{"POSITION":16,"NORMAL":17,"TEXCOORD_0":18},"indices":19,"material":0}]}]}