{"asset":{"version":"2.0","generator":"Blockbench 5.1.1 glTF exporter"},"scenes":[{"nodes":[9],"name":"blockbench_export"}],"scene":0,"nodes":[{"translation":[0,-0.2625,0],"name":"mesh","mesh":0},{"rotation":[0.6532814893216271,0.270598047221885,0.6532814755547491,0.2705980529243126],"translation":[0,0.21875,-0.209375],"name":"mesh","mesh":1},{"rotation":[-0.6532814893216276,-0.270598047221884,0.6532814755547496,0.27059805292431155],"translation":[0.0625,0.21875,0.271875],"name":"mesh","mesh":2},{"translation":[-0.046875,-0.2125,0.025],"name":"mesh","mesh":3},{"rotation":[0,-0.13052619222005157,0,0.9914448613738104],"translation":[-0.11875,-0.2125,0.012500000000000002],"name":"mesh","mesh":4},{"rotation":[0,-0.3007057995042731,0,0.9537169507482269],"translation":[-0.18749999999999997,-0.2125,-0.01875],"name":"mesh","mesh":5},{"translation":[0.140625,-0.21875,0.828125],"name":"group2"},{"rotation":[0,0.9978589232386035,0,0.06540312923014305],"translation":[0.375,0,0.0625],"name":"group4"},{"translation":[-0.1875,-0.36875,-0.703125],"name":"group3","children":[7]},{"name":"Desert props","children":[0,1,2,3,4,5,6,8]}],"bufferViews":[{"buffer":0,"byteOffset":0,"byteLength":240,"target":34962,"byteStride":12},{"buffer":0,"byteOffset":240,"byteLength":240,"target":34962,"byteStride":12},{"buffer":0,"byteOffset":480,"byteLength":160,"target":34962,"byteStride":8},{"buffer":0,"byteOffset":640,"byteLength":60,"target":34963},{"buffer":0,"byteOffset":700,"byteLength":240,"target":34962,"byteStride":12},{"buffer":0,"byteOffset":940,"byteLength":240,"target":34962,"byteStride":12},{"buffer":0,"byteOffset":1180,"byteLength":160,"target":34962,"byteStride":8},{"buffer":0,"byteOffset":1340,"byteLength":60,"target":34963},{"buffer":0,"byteOffset":1400,"byteLength":240,"target":34962,"byteStride":12},{"buffer":0,"byteOffset":1640,"byteLength":240,"target":34962,"byteStride":12},{"buffer":0,"byteOffset":1880,"byteLength":160,"target":34962,"byteStride":8},{"buffer":0,"byteOffset":2040,"byteLength":60,"target":34963},{"buffer":0,"byteOffset":2100,"byteLength":240,"target":34962,"byteStride":12},{"buffer":0,"byteOffset":2340,"byteLength":240,"target":34962,"byteStride":12},{"buffer":0,"byteOffset":2580,"byteLength":160,"target":34962,"byteStride":8},{"buffer":0,"byteOffset":2740,"byteLength":60,"target":34963},{"buffer":0,"byteOffset":2800,"byteLength":240,"target":34962,"byteStride":12},{"buffer":0,"byteOffset":3040,"byteLength":240,"target":34962,"byteStride":12},{"buffer":0,"byteOffset":3280,"byteLength":160,"target":34962,"byteStride":8},{"buffer":0,"byteOffset":3440,"byteLength":60,"target":34963},{"buffer":0,"byteOffset":3500,"byteLength":240,"target":34962,"byteStride":12},{"buffer":0,"byteOffset":3740,"byteLength":240,"target":34962,"byteStride":12},{"buffer":0,"byteOffset":3980,"byteLength":160,"target":34962,"byteStride":8},{"buffer":0,"byteOffset":4140,"byteLength":60,"target":34963}],"buffers":[{"byteLength":4200,"uri":"data:application/octet-stream;base64,"}],"accessors":[{"bufferView":0,"componentType":5126,"count":20,"max":[0.21875,0.375,0.125],"min":[0,0.25,-0.0625],"type":"VEC3"},{"bufferView":1,"componentType":5126,"count":20,"max":[1,0.9344877600669861,0.982338547706604],"min":[-1,0,-0.982338547706604],"type":"VEC3"},{"bufferView":2,"componentType":5126,"count":20,"max":[0.578125,0.34375],"min":[0.203125,0.078125],"type":"VEC2"},{"bufferView":3,"componentType":5123,"count":30,"max":[19],"min":[0],"type":"SCALAR"},{"bufferView":4,"componentType":5126,"count":20,"max":[0.21875,0.34375,0.0625],"min":[0.09375,0.28125,0],"type":"VEC3"},{"bufferView":5,"componentType":5126,"count":20,"max":[1,0.9486833214759827,0.9938837289810181],"min":[0,-1,-0.9938837289810181],"type":"VEC3"},{"bufferView":6,"componentType":5126,"count":20,"max":[0.5160093903541565,0.58203125],"min":[0,0.09375],"type":"VEC2"},{"bufferView":7,"componentType":5123,"count":30,"max":[19],"min":[0],"type":"SCALAR"},{"bufferView":8,"componentType":5126,"count":20,"max":[0.21875,0.34375,0.0625],"min":[0.09375,0.28125,0],"type":"VEC3"},{"bufferView":9,"componentType":5126,"count":20,"max":[1,0.9486833214759827,0.9938837289810181],"min":[0,-1,-0.9938837289810181],"type":"VEC3"},{"bufferView":10,"componentType":5126,"count":20,"max":[0.58203125,0.533669114112854],"min":[0.03255947306752205,0],"type":"VEC2"},{"bufferView":11,"componentType":5123,"count":30,"max":[19],"min":[0],"type":"SCALAR"},{"bufferView":12,"componentType":5126,"count":20,"max":[0.01875000074505806,0.29374998807907104,0.08124999701976776],"min":[-0.01875000074505806,0.20624999701976776,-0.08124999701976776],"type":"VEC3"},{"bufferView":13,"componentType":5126,"count":20,"max":[1,1,0.907008945941925],"min":[-1,0,-0.907008945941925],"type":"VEC3"},{"bufferView":14,"componentType":5126,"count":20,"max":[0.4609375,0.58203125],"min":[0,0.125],"type":"VEC2"},{"bufferView":15,"componentType":5123,"count":30,"max":[19],"min":[0],"type":"SCALAR"},{"bufferView":16,"componentType":5126,"count":20,"max":[0.01875000074505806,0.29374998807907104,0.0625],"min":[-0.01875000074505806,0.20624999701976776,-0.0625],"type":"VEC3"},{"bufferView":17,"componentType":5126,"count":20,"max":[1,1,0.9417418837547302],"min":[-1,0,-0.9417418837547302],"type":"VEC3"},{"bufferView":18,"componentType":5126,"count":20,"max":[0.5546875,0.578125],"min":[0.328125,0.234375],"type":"VEC2"},{"bufferView":19,"componentType":5123,"count":30,"max":[19],"min":[0],"type":"SCALAR"},{"bufferView":20,"componentType":5126,"count":20,"max":[0.01875000074505806,0.29374998807907104,0.0625],"min":[-0.01875000074505806,0.20624999701976776,-0.0625],"type":"VEC3"},{"bufferView":21,"componentType":5126,"count":20,"max":[1,1,0.9417418837547302],"min":[-1,0,-0.9417418837547302],"type":"VEC3"},{"bufferView":22,"componentType":5126,"count":20,"max":[0.5703125,0.59375],"min":[0.09375,0.21875],"type":"VEC2"},{"bufferView":23,"componentType":5123,"count":30,"max":[19],"min":[0],"type":"SCALAR"}],"materials":[{"pbrMetallicRoughness":{"metallicFactor":0,"roughnessFactor":1,"baseColorTexture":{"index":0}},"alphaMode":"MASK","alphaCutoff":0.05,"doubleSided":true}],"textures":[{"sampler":0,"source":0,"name":"Desert_props"}],"samplers":[{"magFilter":9728,"minFilter":9728,"wrapS":33071,"wrapT":33071}],"images":[{"mimeType":"image/png","uri":"data:image/png;base64,"}],"meshes":[{"primitives":[{"mode":4,"attributes":{"POSITION":0,"NORMAL":1,"TEXCOORD_0":2},"indices":3,"material":0}]},{"primitives":[{"mode":4,"attributes":{"POSITION":4,"NORMAL":5,"TEXCOORD_0":6},"indices":7,"material":0}]},{"primitives":[{"mode":4,"attributes":{"POSITION":8,"NORMAL":9,"TEXCOORD_0":10},"indices":11,"material":0}]},{"primitives":[{"mode":4,"attributes":{"POSITION":12,"NORMAL":13,"TEXCOORD_0":14},"indices":15,"material":0}]},{"primitives":[{"mode":4,"attributes":{"POSITION":16,"NORMAL":17,"TEXCOORD_0":18},"indices":19,"material":0}]},{"primitives":[{"mode":4,"attributes":{"POSITION":20,"NORMAL":21,"TEXCOORD_0":22},"indices":23,"material":0}]}]}