{"asset":{"version":"2.0","generator":"Blockbench 5.1.1 glTF exporter"},"scenes":[{"nodes":[6],"name":"blockbench_export"}],"scene":0,"nodes":[{"rotation":[0,0.5555702330196022,0,0.8314696123025452],"translation":[-0.0625,0,0.0625],"name":"mesh","mesh":0},{"rotation":[0,-0.8314696123025452,0,0.5555702330196023],"translation":[-0.09375,0,-0.125],"name":"mesh","mesh":1},{"translation":[-0.140625,0.03125,-0.0625],"name":"mesh","mesh":2},{"translation":[0.140625,-0.21875,0.078125],"name":"group2","children":[0,1,2]},{"rotation":[0,0.9978589232386035,0,0.06540312923014305],"translation":[0.375,0,0.0625],"name":"group4"},{"translation":[-0.1875,-0.36875,-1.453125],"name":"group3","children":[4]},{"name":"Desert props","children":[3,5]}],"bufferViews":[{"buffer":0,"byteOffset":0,"byteLength":288,"target":34962,"byteStride":12},{"buffer":0,"byteOffset":288,"byteLength":288,"target":34962,"byteStride":12},{"buffer":0,"byteOffset":576,"byteLength":192,"target":34962,"byteStride":8},{"buffer":0,"byteOffset":768,"byteLength":72,"target":34963},{"buffer":0,"byteOffset":840,"byteLength":288,"target":34962,"byteStride":12},{"buffer":0,"byteOffset":1128,"byteLength":288,"target":34962,"byteStride":12},{"buffer":0,"byteOffset":1416,"byteLength":192,"target":34962,"byteStride":8},{"buffer":0,"byteOffset":1608,"byteLength":72,"target":34963},{"buffer":0,"byteOffset":1680,"byteLength":288,"target":34962,"byteStride":12},{"buffer":0,"byteOffset":1968,"byteLength":288,"target":34962,"byteStride":12},{"buffer":0,"byteOffset":2256,"byteLength":192,"target":34962,"byteStride":8},{"buffer":0,"byteOffset":2448,"byteLength":72,"target":34963}],"buffers":[{"byteLength":2520,"uri":"data:application/octet-stream;base64,"}],"accessors":[{"bufferView":0,"componentType":5126,"count":24,"max":[0.03125,0.3125,0.078125],"min":[-0.09375,0.1875,-0.078125],"type":"VEC3"},{"bufferView":1,"componentType":5126,"count":24,"max":[0.9669127464294434,0.9038137793540955,0.9560235142707825],"min":[-0.8154516220092773,-1,-0.9289073348045349],"type":"VEC3"},{"bufferView":2,"componentType":5126,"count":24,"max":[0.4609375,0.5011190176010132],"min":[0.109375,0.109375],"type":"VEC2"},{"bufferView":3,"componentType":5123,"count":36,"max":[23],"min":[0],"type":"SCALAR"},{"bufferView":4,"componentType":5126,"count":24,"max":[0.09375,0.3125,0.125],"min":[-0.15625,0.1875,-0.125],"type":"VEC3"},{"bufferView":5,"componentType":5126,"count":24,"max":[0.9019865393638611,0.9728161692619324,0.9096994996070862],"min":[-0.6397096514701843,-1,-0.8441545367240906],"type":"VEC3"},{"bufferView":6,"componentType":5126,"count":24,"max":[0.4400295615196228,0.432622492313385],"min":[0,0.0625],"type":"VEC2"},{"bufferView":7,"componentType":5123,"count":36,"max":[23],"min":[0],"type":"SCALAR"},{"bufferView":8,"componentType":5126,"count":24,"max":[0.140625,0.34375,0.1875],"min":[-0.203125,0.15625,-0.1875],"type":"VEC3"},{"bufferView":9,"componentType":5126,"count":24,"max":[0.9157226085662842,0.9680449962615967,0.9089241027832031],"min":[-0.6722099781036377,-1,-0.8440873026847839],"type":"VEC3"},{"bufferView":10,"componentType":5126,"count":24,"max":[0.34971511363983154,0.22760772705078125],"min":[0,0],"type":"VEC2"},{"bufferView":11,"componentType":5123,"count":36,"max":[23],"min":[0],"type":"SCALAR"}],"materials":[{"pbrMetallicRoughness":{"metallicFactor":0,"roughnessFactor":1,"baseColorTexture":{"index":0}},"alphaMode":"MASK","alphaCutoff":0.05,"doubleSided":true}],"textures":[{"sampler":0,"source":0,"name":"Desert_props"}],"samplers":[{"magFilter":9728,"minFilter":9728,"wrapS":33071,"wrapT":33071}],"images":[{"mimeType":"image/png","uri":"data:image/png;base64,"}],"meshes":[{"primitives":[{"mode":4,"attributes":{"POSITION":0,"NORMAL":1,"TEXCOORD_0":2},"indices":3,"material":0}]},{"primitives":[{"mode":4,"attributes":{"POSITION":4,"NORMAL":5,"TEXCOORD_0":6},"indices":7,"material":0}]},{"primitives":[{"mode":4,"attributes":{"POSITION":8,"NORMAL":9,"TEXCOORD_0":10},"indices":11,"material":0}]}]}