{"asset":{"version":"2.0","generator":"Blockbench 5.1.1 glTF exporter"},"scenes":[{"nodes":[11],"name":"blockbench_export"}],"scene":0,"nodes":[{"translation":[0,-0.21875,0.0625],"name":"cylinder","mesh":0},{"translation":[0.09375,-0.25,-0.0625],"name":"cylinder","mesh":1},{"translation":[0.140625,-0.21875,1.578125],"name":"group2"},{"rotation":[-0.02094337720087438,-0.07830427709355783,-0.2686498041734122,0.9598213885186475],"translation":[0,0,-0.015625],"name":"mesh","mesh":2},{"rotation":[0.0420291639720675,-0.8899394033127579,-0.14719318175074714,0.4296225960691929],"translation":[0.140625,-0.03125,-0.046875],"name":"mesh","mesh":3},{"rotation":[-0.1783417558003061,0.8478233533065563,0.08188384689170114,0.4926305059010318],"translation":[0.3125,-0.015625,-0.015625],"name":"mesh","mesh":4},{"rotation":[-0.02094337720087438,-0.07830427709355783,-0.2686498041734122,0.9598213885186475],"translation":[0,0,-0.015625],"name":"mesh","mesh":5},{"rotation":[0.0420291639720675,-0.8899394033127579,-0.14719318175074714,0.4296225960691929],"translation":[0.140625,-0.03125,-0.046875],"name":"mesh","mesh":6},{"rotation":[-0.1783417558003061,0.8478233533065563,0.08188384689170114,0.4926305059010318],"translation":[0.3125,-0.015625,-0.015625],"name":"mesh","mesh":7},{"rotation":[0,0.9978589232386035,0,0.06540312923014305],"translation":[0.375,0,0.0625],"name":"group4","children":[6,7,8]},{"translation":[-0.1875,-0.36875,0.046875],"name":"group3","children":[3,4,5,9]},{"name":"Desert props","children":[0,1,2,10]}],"bufferViews":[{"buffer":0,"byteOffset":0,"byteLength":576,"target":34962,"byteStride":12},{"buffer":0,"byteOffset":576,"byteLength":576,"target":34962,"byteStride":12},{"buffer":0,"byteOffset":1152,"byteLength":384,"target":34962,"byteStride":8},{"buffer":0,"byteOffset":1536,"byteLength":120,"target":34963},{"buffer":0,"byteOffset":1656,"byteLength":504,"target":34962,"byteStride":12},{"buffer":0,"byteOffset":2160,"byteLength":504,"target":34962,"byteStride":12},{"buffer":0,"byteOffset":2664,"byteLength":336,"target":34962,"byteStride":8},{"buffer":0,"byteOffset":3000,"byteLength":108,"target":34963},{"buffer":0,"byteOffset":3108,"byteLength":48,"target":34962,"byteStride":12},{"buffer":0,"byteOffset":3156,"byteLength":48,"target":34962,"byteStride":12},{"buffer":0,"byteOffset":3204,"byteLength":32,"target":34962,"byteStride":8},{"buffer":0,"byteOffset":3236,"byteLength":12,"target":34963},{"buffer":0,"byteOffset":3248,"byteLength":48,"target":34962,"byteStride":12},{"buffer":0,"byteOffset":3296,"byteLength":48,"target":34962,"byteStride":12},{"buffer":0,"byteOffset":3344,"byteLength":32,"target":34962,"byteStride":8},{"buffer":0,"byteOffset":3376,"byteLength":12,"target":34963},{"buffer":0,"byteOffset":3388,"byteLength":48,"target":34962,"byteStride":12},{"buffer":0,"byteOffset":3436,"byteLength":48,"target":34962,"byteStride":12},{"buffer":0,"byteOffset":3484,"byteLength":32,"target":34962,"byteStride":8},{"buffer":0,"byteOffset":3516,"byteLength":12,"target":34963},{"buffer":0,"byteOffset":3528,"byteLength":48,"target":34962,"byteStride":12},{"buffer":0,"byteOffset":3576,"byteLength":48,"target":34962,"byteStride":12},{"buffer":0,"byteOffset":3624,"byteLength":32,"target":34962,"byteStride":8},{"buffer":0,"byteOffset":3656,"byteLength":12,"target":34963},{"buffer":0,"byteOffset":3668,"byteLength":48,"target":34962,"byteStride":12},{"buffer":0,"byteOffset":3716,"byteLength":48,"target":34962,"byteStride":12},{"buffer":0,"byteOffset":3764,"byteLength":32,"target":34962,"byteStride":8},{"buffer":0,"byteOffset":3796,"byteLength":12,"target":34963},{"buffer":0,"byteOffset":3808,"byteLength":48,"target":34962,"byteStride":12},{"buffer":0,"byteOffset":3856,"byteLength":48,"target":34962,"byteStride":12},{"buffer":0,"byteOffset":3904,"byteLength":32,"target":34962,"byteStride":8},{"buffer":0,"byteOffset":3936,"byteLength":12,"target":34963}],"buffers":[{"byteLength":3948,"uri":"data:application/octet-stream;base64,"}],"accessors":[{"bufferView":0,"componentType":5126,"count":48,"max":[0.10860026627779007,0.359375,0.09375],"min":[-0.10860026627779007,0.21875,-0.09375],"type":"VEC3"},{"bufferView":1,"componentType":5126,"count":48,"max":[0.8653309345245361,0.9240357875823975,1],"min":[-0.8653309345245361,-1,-1],"type":"VEC3"},{"bufferView":2,"componentType":5126,"count":48,"max":[0.4987632930278778,0.49609375],"min":[0.09375,0.046875],"type":"VEC2"},{"bufferView":3,"componentType":5123,"count":60,"max":[47],"min":[0],"type":"SCALAR"},{"bufferView":4,"componentType":5126,"count":42,"max":[0.07735026627779007,0.328125,0.0625],"min":[-0.07735026627779007,0.25,-0.0625],"type":"VEC3"},{"bufferView":5,"componentType":5126,"count":42,"max":[0.8503585457801819,0.950080931186676,1],"min":[-0.8503585457801819,0,-1],"type":"VEC3"},{"bufferView":6,"componentType":5126,"count":42,"max":[0.56640625,0.546875],"min":[0.359375,0],"type":"VEC2"},{"bufferView":7,"componentType":5123,"count":54,"max":[41],"min":[0],"type":"SCALAR"},{"bufferView":8,"componentType":5126,"count":4,"max":[-0.0625,0.5295158624649048,0.10613203793764114],"min":[-0.1448861062526703,0.5295158624649048,0.03125],"type":"VEC3"},{"bufferView":9,"componentType":5126,"count":4,"max":[0,1,0],"min":[0,1,0],"type":"VEC3"},{"bufferView":10,"componentType":5126,"count":4,"max":[0.5224125385284424,0.53125],"min":[0.5010249614715576,0.515625],"type":"VEC2"},{"bufferView":11,"componentType":5123,"count":6,"max":[3],"min":[0],"type":"SCALAR"},{"bufferView":12,"componentType":5126,"count":4,"max":[-0.0625,0.5295158624649048,0.10613203793764114],"min":[-0.1448861062526703,0.5295158624649048,0.03125],"type":"VEC3"},{"bufferView":13,"componentType":5126,"count":4,"max":[0,1,0],"min":[0,1,0],"type":"VEC3"},{"bufferView":14,"componentType":5126,"count":4,"max":[0.5536625385284424,0.171875],"min":[0.5322749614715576,0.15625],"type":"VEC2"},{"bufferView":15,"componentType":5123,"count":6,"max":[3],"min":[0],"type":"SCALAR"},{"bufferView":16,"componentType":5126,"count":4,"max":[-0.0625,0.5295158624649048,0.10613203793764114],"min":[-0.1448861062526703,0.5295158624649048,0.03125],"type":"VEC3"},{"bufferView":17,"componentType":5126,"count":4,"max":[0,1,0],"min":[0,1,0],"type":"VEC3"},{"bufferView":18,"componentType":5126,"count":4,"max":[0.5536625385284424,0.203125],"min":[0.5322749614715576,0.1875],"type":"VEC2"},{"bufferView":19,"componentType":5123,"count":6,"max":[3],"min":[0],"type":"SCALAR"},{"bufferView":20,"componentType":5126,"count":4,"max":[-0.0625,0.5295158624649048,0.10613203793764114],"min":[-0.1448861062526703,0.5295158624649048,0.03125],"type":"VEC3"},{"bufferView":21,"componentType":5126,"count":4,"max":[0,1,0],"min":[0,1,0],"type":"VEC3"},{"bufferView":22,"componentType":5126,"count":4,"max":[0.3349125385284424,0.546875],"min":[0.3135249614715576,0.53125],"type":"VEC2"},{"bufferView":23,"componentType":5123,"count":6,"max":[3],"min":[0],"type":"SCALAR"},{"bufferView":24,"componentType":5126,"count":4,"max":[-0.0625,0.5295158624649048,0.10613203793764114],"min":[-0.1448861062526703,0.5295158624649048,0.03125],"type":"VEC3"},{"bufferView":25,"componentType":5126,"count":4,"max":[0,1,0],"min":[0,1,0],"type":"VEC3"},{"bufferView":26,"componentType":5126,"count":4,"max":[0.5536625385284424,0.328125],"min":[0.5322749614715576,0.3125],"type":"VEC2"},{"bufferView":27,"componentType":5123,"count":6,"max":[3],"min":[0],"type":"SCALAR"},{"bufferView":28,"componentType":5126,"count":4,"max":[-0.0625,0.5295158624649048,0.10613203793764114],"min":[-0.1448861062526703,0.5295158624649048,0.03125],"type":"VEC3"},{"bufferView":29,"componentType":5126,"count":4,"max":[0,1,0],"min":[0,1,0],"type":"VEC3"},{"bufferView":30,"componentType":5126,"count":4,"max":[0.5536625385284424,0.359375],"min":[0.5322749614715576,0.34375],"type":"VEC2"},{"bufferView":31,"componentType":5123,"count":6,"max":[3],"min":[0],"type":"SCALAR"}],"materials":[{"pbrMetallicRoughness":{"metallicFactor":0,"roughnessFactor":1,"baseColorTexture":{"index":0}},"alphaMode":"MASK","alphaCutoff":0.05,"doubleSided":true}],"textures":[{"sampler":0,"source":0,"name":"Desert_props"}],"samplers":[{"magFilter":9728,"minFilter":9728,"wrapS":33071,"wrapT":33071}],"images":[{"mimeType":"image/png","uri":"data:image/png;base64,"}],"meshes":[{"primitives":[{"mode":4,"attributes":{"POSITION":0,"NORMAL":1,"TEXCOORD_0":2},"indices":3,"material":0}]},{"primitives":[{"mode":4,"attributes":{"POSITION":4,"NORMAL":5,"TEXCOORD_0":6},"indices":7,"material":0}]},{"primitives":[{"mode":4,"attributes":{"POSITION":8,"NORMAL":9,"TEXCOORD_0":10},"indices":11,"material":0}]},{"primitives":[{"mode":4,"attributes":{"POSITION":12,"NORMAL":13,"TEXCOORD_0":14},"indices":15,"material":0}]},{"primitives":[{"mode":4,"attributes":{"POSITION":16,"NORMAL":17,"TEXCOORD_0":18},"indices":19,"material":0}]},{"primitives":[{"mode":4,"attributes":{"POSITION":20,"NORMAL":21,"TEXCOORD_0":22},"indices":23,"material":0}]},{"primitives":[{"mode":4,"attributes":{"POSITION":24,"NORMAL":25,"TEXCOORD_0":26},"indices":27,"material":0}]},{"primitives":[{"mode":4,"attributes":{"POSITION":28,"NORMAL":29,"TEXCOORD_0":30},"indices":31,"material":0}]}]}