{"asset":{"version":"2.0","generator":"Blockbench 5.1.1 glTF exporter"},"scenes":[{"nodes":[0,20],"name":"blockbench_export"}],"scene":0,"nodes":[{"name":"domki"},{"translation":[-0.09999999999999998,-0.125,0.2999999999999998],"name":"mesh","mesh":0},{"translation":[-0.09999999999999998,-0.125,-0.3250000000000002],"name":"mesh","mesh":1},{"translation":[0.2000000000000004,-0.09374999999999997,0.25937499999999925],"name":"sphere","mesh":2},{"rotation":[0,0.17364817766693033,0,0.984807753012208],"translation":[0.16250000000000053,-0.09374999999999997,0.13437499999999936],"name":"sphere","mesh":3},{"translation":[-0.09999999999999998,0.09375,0.28125],"name":"mesh","mesh":4},{"translation":[-0.09999999999999998,0.09375,-0.3125],"name":"mesh","mesh":5},{"translation":[-0.09999999999999998,0.55625,-0.015625],"name":"mesh","mesh":6},{"translation":[-0.09999999999999998,0.125,-0.012500000000000178],"name":"mesh","mesh":7},{"rotation":[0,-0.9990482215818578,0,0.04361938736533601],"translation":[0.2593749999999999,-0.234375,-0.13750000000000018],"name":"mesh","mesh":8},{"rotation":[0,-0.9990482215818578,0,0.04361938736533601],"translation":[0.2593749999999999,-0.234375,-0.24687500000000018],"name":"mesh","mesh":9},{"rotation":[0,-0.9990482215818578,0,0.04361938736533601],"translation":[0.2593749999999999,-0.234375,-0.3562500000000002],"name":"mesh","mesh":10},{"rotation":[0,-0.9990482215818578,0,0.04361938736533601],"translation":[0.2593749999999999,-0.171875,-0.3093750000000002],"name":"mesh","mesh":11},{"rotation":[0,-0.9713420698132614,0,0.2376858923261731],"translation":[0.3687499999999999,-0.234375,0.0031249999999998224],"name":"mesh","mesh":12},{"rotation":[0,-0.9990482215818578,0,0.04361938736533601],"translation":[0.2593749999999999,-0.171875,-0.18437500000000018],"name":"mesh","mesh":13},{"translation":[-0.09999999999999998,0.65625,0.11249999999999982],"name":"mesh","mesh":14},{"translation":[-0.09999999999999998,0.65625,-0.13750000000000018],"name":"mesh","mesh":15},{"translation":[-0.09999999999999998,0.4375,-0.012500000000000178],"name":"mesh","mesh":16},{"rotation":[0.7071067811865475,0,0,0.7071067811865476],"translation":[0.2124999999999999,0.0625,0.3624999999999998],"name":"plane","mesh":17},{"rotation":[0.4999999999999999,-0.49999999999999967,0.5000000000000001,0.5000000000000003],"translation":[0.3374999999999999,0.0625,0.23749999999999982],"name":"plane","mesh":18},{"name":"Deser_house_2","children":[1,2,3,4,5,6,7,8,9,10,11,12,13,14,15,16,17,18,19]}],"bufferViews":[{"buffer":0,"byteOffset":0,"byteLength":288,"target":34962,"byteStride":12},{"buffer":0,"byteOffset":288,"byteLength":288,"target":34962,"byteStride":12},{"buffer":0,"byteOffset":576,"byteLength":192,"target":34962,"byteStride":8},{"buffer":0,"byteOffset":768,"byteLength":72,"target":34963},{"buffer":0,"byteOffset":840,"byteLength":288,"target":34962,"byteStride":12},{"buffer":0,"byteOffset":1128,"byteLength":288,"target":34962,"byteStride":12},{"buffer":0,"byteOffset":1416,"byteLength":192,"target":34962,"byteStride":8},{"buffer":0,"byteOffset":1608,"byteLength":72,"target":34963},{"buffer":0,"byteOffset":1680,"byteLength":420,"target":34962,"byteStride":12},{"buffer":0,"byteOffset":2100,"byteLength":420,"target":34962,"byteStride":12},{"buffer":0,"byteOffset":2520,"byteLength":280,"target":34962,"byteStride":8},{"buffer":0,"byteOffset":2800,"byteLength":92,"target":34963},{"buffer":0,"byteOffset":2892,"byteLength":420,"target":34962,"byteStride":12},{"buffer":0,"byteOffset":3312,"byteLength":420,"target":34962,"byteStride":12},{"buffer":0,"byteOffset":3732,"byteLength":280,"target":34962,"byteStride":8},{"buffer":0,"byteOffset":4012,"byteLength":92,"target":34963},{"buffer":0,"byteOffset":4104,"byteLength":288,"target":34962,"byteStride":12},{"buffer":0,"byteOffset":4392,"byteLength":288,"target":34962,"byteStride":12},{"buffer":0,"byteOffset":4680,"byteLength":192,"target":34962,"byteStride":8},{"buffer":0,"byteOffset":4872,"byteLength":72,"target":34963},{"buffer":0,"byteOffset":4944,"byteLength":288,"target":34962,"byteStride":12},{"buffer":0,"byteOffset":5232,"byteLength":288,"target":34962,"byteStride":12},{"buffer":0,"byteOffset":5520,"byteLength":192,"target":34962,"byteStride":8},{"buffer":0,"byteOffset":5712,"byteLength":72,"target":34963},{"buffer":0,"byteOffset":5784,"byteLength":288,"target":34962,"byteStride":12},{"buffer":0,"byteOffset":6072,"byteLength":288,"target":34962,"byteStride":12},{"buffer":0,"byteOffset":6360,"byteLength":192,"target":34962,"byteStride":8},{"buffer":0,"byteOffset":6552,"byteLength":72,"target":34963},{"buffer":0,"byteOffset":6624,"byteLength":288,"target":34962,"byteStride":12},{"buffer":0,"byteOffset":6912,"byteLength":288,"target":34962,"byteStride":12},{"buffer":0,"byteOffset":7200,"byteLength":192,"target":34962,"byteStride":8},{"buffer":0,"byteOffset":7392,"byteLength":72,"target":34963},{"buffer":0,"byteOffset":7464,"byteLength":288,"target":34962,"byteStride":12},{"buffer":0,"byteOffset":7752,"byteLength":288,"target":34962,"byteStride":12},{"buffer":0,"byteOffset":8040,"byteLength":192,"target":34962,"byteStride":8},{"buffer":0,"byteOffset":8232,"byteLength":72,"target":34963},{"buffer":0,"byteOffset":8304,"byteLength":288,"target":34962,"byteStride":12},{"buffer":0,"byteOffset":8592,"byteLength":288,"target":34962,"byteStride":12},{"buffer":0,"byteOffset":8880,"byteLength":192,"target":34962,"byteStride":8},{"buffer":0,"byteOffset":9072,"byteLength":72,"target":34963},{"buffer":0,"byteOffset":9144,"byteLength":288,"target":34962,"byteStride":12},{"buffer":0,"byteOffset":9432,"byteLength":288,"target":34962,"byteStride":12},{"buffer":0,"byteOffset":9720,"byteLength":192,"target":34962,"byteStride":8},{"buffer":0,"byteOffset":9912,"byteLength":72,"target":34963},{"buffer":0,"byteOffset":9984,"byteLength":288,"target":34962,"byteStride":12},{"buffer":0,"byteOffset":10272,"byteLength":288,"target":34962,"byteStride":12},{"buffer":0,"byteOffset":10560,"byteLength":192,"target":34962,"byteStride":8},{"buffer":0,"byteOffset":10752,"byteLength":72,"target":34963},{"buffer":0,"byteOffset":10824,"byteLength":288,"target":34962,"byteStride":12},{"buffer":0,"byteOffset":11112,"byteLength":288,"target":34962,"byteStride":12},{"buffer":0,"byteOffset":11400,"byteLength":192,"target":34962,"byteStride":8},{"buffer":0,"byteOffset":11592,"byteLength":72,"target":34963},{"buffer":0,"byteOffset":11664,"byteLength":288,"target":34962,"byteStride":12},{"buffer":0,"byteOffset":11952,"byteLength":288,"target":34962,"byteStride":12},{"buffer":0,"byteOffset":12240,"byteLength":192,"target":34962,"byteStride":8},{"buffer":0,"byteOffset":12432,"byteLength":72,"target":34963},{"buffer":0,"byteOffset":12504,"byteLength":288,"target":34962,"byteStride":12},{"buffer":0,"byteOffset":12792,"byteLength":288,"target":34962,"byteStride":12},{"buffer":0,"byteOffset":13080,"byteLength":192,"target":34962,"byteStride":8},{"buffer":0,"byteOffset":13272,"byteLength":72,"target":34963},{"buffer":0,"byteOffset":13344,"byteLength":288,"target":34962,"byteStride":12},{"buffer":0,"byteOffset":13632,"byteLength":288,"target":34962,"byteStride":12},{"buffer":0,"byteOffset":13920,"byteLength":192,"target":34962,"byteStride":8},{"buffer":0,"byteOffset":14112,"byteLength":72,"target":34963},{"buffer":0,"byteOffset":14184,"byteLength":288,"target":34962,"byteStride":12},{"buffer":0,"byteOffset":14472,"byteLength":288,"target":34962,"byteStride":12},{"buffer":0,"byteOffset":14760,"byteLength":192,"target":34962,"byteStride":8},{"buffer":0,"byteOffset":14952,"byteLength":72,"target":34963},{"buffer":0,"byteOffset":15024,"byteLength":48,"target":34962,"byteStride":12},{"buffer":0,"byteOffset":15072,"byteLength":48,"target":34962,"byteStride":12},{"buffer":0,"byteOffset":15120,"byteLength":32,"target":34962,"byteStride":8},{"buffer":0,"byteOffset":15152,"byteLength":12,"target":34963},{"buffer":0,"byteOffset":15164,"byteLength":48,"target":34962,"byteStride":12},{"buffer":0,"byteOffset":15212,"byteLength":48,"target":34962,"byteStride":12},{"buffer":0,"byteOffset":15260,"byteLength":32,"target":34962,"byteStride":8},{"buffer":0,"byteOffset":15292,"byteLength":12,"target":34963}],"buffers":[{"byteLength":15304,"uri":"data:application/octet-stream;base64,"}],"accessors":[{"bufferView":0,"componentType":5126,"count":24,"max":[0.1875,0.4375,0.125],"min":[-0.1875,0.0625,-0.125],"type":"VEC3"},{"bufferView":1,"componentType":5126,"count":24,"max":[1,1,1],"min":[-1,-1,-1],"type":"VEC3"},{"bufferView":2,"componentType":5126,"count":24,"max":[0.765625,0.7578125],"min":[0.2734375,0],"type":"VEC2"},{"bufferView":3,"componentType":5123,"count":36,"max":[23],"min":[0],"type":"SCALAR"},{"bufferView":4,"componentType":5126,"count":24,"max":[0.1875,0.4375,0.125],"min":[-0.1875,0.0625,-0.125],"type":"VEC3"},{"bufferView":5,"componentType":5126,"count":24,"max":[1,1,1],"min":[-1,-1,-1],"type":"VEC3"},{"bufferView":6,"componentType":5126,"count":24,"max":[0.7734375,0.7734375],"min":[0.0546875,0.203125],"type":"VEC2"},{"bufferView":7,"componentType":5123,"count":36,"max":[23],"min":[0],"type":"SCALAR"},{"bufferView":8,"componentType":5126,"count":35,"max":[0.11841195821762085,0.21875,0.0736377015709877],"min":[-0.11841195821762085,0.03125,-0.17585813999176025],"type":"VEC3"},{"bufferView":9,"componentType":5126,"count":35,"max":[0.959571897983551,0.8724514842033386,1],"min":[-0.959571897983551,0,-0.7790382504463196],"type":"VEC3"},{"bufferView":10,"componentType":5126,"count":35,"max":[0.869140625,0.873046875],"min":[0,0.2109375],"type":"VEC2"},{"bufferView":11,"componentType":5123,"count":45,"max":[34],"min":[0],"type":"SCALAR"},{"bufferView":12,"componentType":5126,"count":35,"max":[0.13403695821762085,0.25,0.0736377015709877],"min":[-0.13403695821762085,1.1102230246251565e-16,-0.17585813999176025],"type":"VEC3"},{"bufferView":13,"componentType":5126,"count":35,"max":[0.9490545392036438,0.8067576289176941,1],"min":[-0.9490545392036438,0,-0.8150019645690918],"type":"VEC3"},{"bufferView":14,"componentType":5126,"count":35,"max":[0.8707609176635742,0.869140625],"min":[0.234375,0.25],"type":"VEC2"},{"bufferView":15,"componentType":5123,"count":45,"max":[34],"min":[0],"type":"SCALAR"},{"bufferView":16,"componentType":5126,"count":24,"max":[0.21875,0.29374998807907104,0.171875],"min":[-0.21875,0.20624999701976776,-0.171875],"type":"VEC3"},{"bufferView":17,"componentType":5126,"count":24,"max":[0.9417418837547302,1,0.9868660569190979],"min":[-0.9417418837547302,-1,-0.9868660569190979],"type":"VEC3"},{"bufferView":18,"componentType":5126,"count":24,"max":[0.8359375,0.75390625],"min":[0.25,0.140625],"type":"VEC2"},{"bufferView":19,"componentType":5123,"count":36,"max":[23],"min":[0],"type":"SCALAR"},{"bufferView":20,"componentType":5126,"count":24,"max":[0.21875,0.29374998807907104,0.171875],"min":[-0.21875,0.20624999701976776,-0.171875],"type":"VEC3"},{"bufferView":21,"componentType":5126,"count":24,"max":[0.9417418837547302,1,0.9868660569190979],"min":[-0.9417418837547302,-1,-0.9868660569190979],"type":"VEC3"},{"bufferView":22,"componentType":5126,"count":24,"max":[0.84375,0.80859375],"min":[0.2421875,0.328125],"type":"VEC2"},{"bufferView":23,"componentType":5123,"count":36,"max":[23],"min":[0],"type":"SCALAR"},{"bufferView":24,"componentType":5126,"count":24,"max":[0.21875,0.29374998807907104,0.21875],"min":[-0.21875,0.20624999701976776,-0.21875],"type":"VEC3"},{"bufferView":25,"componentType":5126,"count":24,"max":[0.9417418837547302,1,0.9789804220199585],"min":[-0.9417418837547302,-1,-0.9789804220199585],"type":"VEC3"},{"bufferView":26,"componentType":5126,"count":24,"max":[0.84375,0.80078125],"min":[0.0546875,0.3515625],"type":"VEC2"},{"bufferView":27,"componentType":5123,"count":36,"max":[23],"min":[0],"type":"SCALAR"},{"bufferView":28,"componentType":5126,"count":24,"max":[0.1875,0.625,0.1875],"min":[-0.1875,-0.125,-0.1875],"type":"VEC3"},{"bufferView":29,"componentType":5126,"count":24,"max":[1,1,1],"min":[-1,-1,-1],"type":"VEC3"},{"bufferView":30,"componentType":5126,"count":24,"max":[0.3203125,0.71875],"min":[0,0],"type":"VEC2"},{"bufferView":31,"componentType":5123,"count":36,"max":[23],"min":[0],"type":"SCALAR"},{"bufferView":32,"componentType":5126,"count":24,"max":[0.0625,0.296875,0.046875],"min":[-0.0625,0.234375,-0.046875],"type":"VEC3"},{"bufferView":33,"componentType":5126,"count":24,"max":[1,1,0.9701424837112427],"min":[-1,-1,-0.9701424837112427],"type":"VEC3"},{"bufferView":34,"componentType":5126,"count":24,"max":[0.75,0.828125],"min":[0.25,0.0703125],"type":"VEC2"},{"bufferView":35,"componentType":5123,"count":36,"max":[23],"min":[0],"type":"SCALAR"},{"bufferView":36,"componentType":5126,"count":24,"max":[0.0625,0.296875,0.046875],"min":[-0.0625,0.234375,-0.046875],"type":"VEC3"},{"bufferView":37,"componentType":5126,"count":24,"max":[1,1,0.9701424837112427],"min":[-1,-1,-0.9701424837112427],"type":"VEC3"},{"bufferView":38,"componentType":5126,"count":24,"max":[0.75,0.828125],"min":[0.25,0.0703125],"type":"VEC2"},{"bufferView":39,"componentType":5123,"count":36,"max":[23],"min":[0],"type":"SCALAR"},{"bufferView":40,"componentType":5126,"count":24,"max":[0.0625,0.296875,0.046875],"min":[-0.0625,0.234375,-0.046875],"type":"VEC3"},{"bufferView":41,"componentType":5126,"count":24,"max":[1,1,0.9701424837112427],"min":[-1,-1,-0.9701424837112427],"type":"VEC3"},{"bufferView":42,"componentType":5126,"count":24,"max":[0.75,0.828125],"min":[0.25,0.0703125],"type":"VEC2"},{"bufferView":43,"componentType":5123,"count":36,"max":[23],"min":[0],"type":"SCALAR"},{"bufferView":44,"componentType":5126,"count":24,"max":[0.0625,0.296875,0.046875],"min":[-0.0625,0.234375,-0.046875],"type":"VEC3"},{"bufferView":45,"componentType":5126,"count":24,"max":[1,1,0.9701424837112427],"min":[-1,-1,-0.9701424837112427],"type":"VEC3"},{"bufferView":46,"componentType":5126,"count":24,"max":[0.75,0.828125],"min":[0.25,0.0703125],"type":"VEC2"},{"bufferView":47,"componentType":5123,"count":36,"max":[23],"min":[0],"type":"SCALAR"},{"bufferView":48,"componentType":5126,"count":24,"max":[0.0625,0.296875,0.046875],"min":[-0.0625,0.234375,-0.046875],"type":"VEC3"},{"bufferView":49,"componentType":5126,"count":24,"max":[1,1,0.9701424837112427],"min":[-1,-1,-0.9701424837112427],"type":"VEC3"},{"bufferView":50,"componentType":5126,"count":24,"max":[0.75,0.828125],"min":[0.25,0.0703125],"type":"VEC2"},{"bufferView":51,"componentType":5123,"count":36,"max":[23],"min":[0],"type":"SCALAR"},{"bufferView":52,"componentType":5126,"count":24,"max":[0.0625,0.296875,0.046875],"min":[-0.0625,0.234375,-0.046875],"type":"VEC3"},{"bufferView":53,"componentType":5126,"count":24,"max":[1,1,0.9701424837112427],"min":[-1,-1,-0.9701424837112427],"type":"VEC3"},{"bufferView":54,"componentType":5126,"count":24,"max":[0.75,0.828125],"min":[0.25,0.0703125],"type":"VEC2"},{"bufferView":55,"componentType":5123,"count":36,"max":[23],"min":[0],"type":"SCALAR"},{"bufferView":56,"componentType":5126,"count":24,"max":[0.125,0.3125,0.0625],"min":[-0.125,0.1875,-0.0625],"type":"VEC3"},{"bufferView":57,"componentType":5126,"count":24,"max":[1,1,1],"min":[-1,-1,-1],"type":"VEC3"},{"bufferView":58,"componentType":5126,"count":24,"max":[0.8515625,0.8359375],"min":[0,0],"type":"VEC2"},{"bufferView":59,"componentType":5123,"count":36,"max":[23],"min":[0],"type":"SCALAR"},{"bufferView":60,"componentType":5126,"count":24,"max":[0.125,0.3125,0.0625],"min":[-0.125,0.1875,-0.0625],"type":"VEC3"},{"bufferView":61,"componentType":5126,"count":24,"max":[1,1,1],"min":[-1,-1,-1],"type":"VEC3"},{"bufferView":62,"componentType":5126,"count":24,"max":[0.8515625,0.8359375],"min":[0,0],"type":"VEC2"},{"bufferView":63,"componentType":5123,"count":36,"max":[23],"min":[0],"type":"SCALAR"},{"bufferView":64,"componentType":5126,"count":24,"max":[0.21875,0.328125,0.21875],"min":[-0.21875,0.171875,-0.21875],"type":"VEC3"},{"bufferView":65,"componentType":5126,"count":24,"max":[0.9805806875228882,1,0.9805806875228882],"min":[-0.9805806875228882,-1,-0.9805806875228882],"type":"VEC3"},{"bufferView":66,"componentType":5126,"count":24,"max":[0.8203125,0.78515625],"min":[0.5078125,0.0546875],"type":"VEC2"},{"bufferView":67,"componentType":5123,"count":36,"max":[23],"min":[0],"type":"SCALAR"},{"bufferView":68,"componentType":5126,"count":4,"max":[0.125,0,0.125],"min":[-0.125,0,-0.125],"type":"VEC3"},{"bufferView":69,"componentType":5126,"count":4,"max":[0,1,0],"min":[0,1,0],"type":"VEC3"},{"bufferView":70,"componentType":5126,"count":4,"max":[0.8125,0.1640625],"min":[0.78125,0.1328125],"type":"VEC2"},{"bufferView":71,"componentType":5123,"count":6,"max":[3],"min":[0],"type":"SCALAR"},{"bufferView":72,"componentType":5126,"count":4,"max":[0.125,0,0.125],"min":[-0.125,0,-0.125],"type":"VEC3"},{"bufferView":73,"componentType":5126,"count":4,"max":[0,1,0],"min":[0,1,0],"type":"VEC3"},{"bufferView":74,"componentType":5126,"count":4,"max":[0.640625,0.5],"min":[0.546875,0.46875],"type":"VEC2"},{"bufferView":75,"componentType":5123,"count":6,"max":[3],"min":[0],"type":"SCALAR"}],"materials":[{"pbrMetallicRoughness":{"metallicFactor":0,"roughnessFactor":1,"baseColorTexture":{"index":0}},"alphaMode":"MASK","alphaCutoff":0.05,"doubleSided":true}],"textures":[{"sampler":0,"source":0,"name":"houses"}],"samplers":[{"magFilter":9728,"minFilter":9728,"wrapS":33071,"wrapT":33071}],"images":[{"mimeType":"image/png","uri":"data:image/png;base64,"}],"meshes":[{"primitives":[{"mode":4,"attributes":{"POSITION":0,"NORMAL":1,"TEXCOORD_0":2},"indices":3,"material":0}]},{"primitives":[{"mode":4,"attributes":{"POSITION":4,"NORMAL":5,"TEXCOORD_0":6},"indices":7,"material":0}]},{"primitives":[{"mode":4,"attributes":{"POSITION":8,"NORMAL":9,"TEXCOORD_0":10},"indices":11,"material":0}]},{"primitives":[{"mode":4,"attributes":{"POSITION":12,"NORMAL":13,"TEXCOORD_0":14},"indices":15,"material":0}]},{"primitives":[{"mode":4,"attributes":{"POSITION":16,"NORMAL":17,"TEXCOORD_0":18},"indices":19,"material":0}]},{"primitives":[{"mode":4,"attributes":{"POSITION":20,"NORMAL":21,"TEXCOORD_0":22},"indices":23,"material":0}]},{"primitives":[{"mode":4,"attributes":{"POSITION":24,"NORMAL":25,"TEXCOORD_0":26},"indices":27,"material":0}]},{"primitives":[{"mode":4,"attributes":{"POSITION":28,"NORMAL":29,"TEXCOORD_0":30},"indices":31,"material":0}]},{"primitives":[{"mode":4,"attributes":{"POSITION":32,"NORMAL":33,"TEXCOORD_0":34},"indices":35,"material":0}]},{"primitives":[{"mode":4,"attributes":{"POSITION":36,"NORMAL":37,"TEXCOORD_0":38},"indices":39,"material":0}]},{"primitives":[{"mode":4,"attributes":{"POSITION":40,"NORMAL":41,"TEXCOORD_0":42},"indices":43,"material":0}]},{"primitives":[{"mode":4,"attributes":{"POSITION":44,"NORMAL":45,"TEXCOORD_0":46},"indices":47,"material":0}]},{"primitives":[{"mode":4,"attributes":{"POSITION":48,"NORMAL":49,"TEXCOORD_0":50},"indices":51,"material":0}]},{"primitives":[{"mode":4,"attributes":{"POSITION":52,"NORMAL":53,"TEXCOORD_0":54},"indices":55,"material":0}]},{"primitives":[{"mode":4,"attributes":{"POSITION":56,"NORMAL":57,"TEXCOORD_0":58},"indices":59,"material":0}]},{"primitives":[{"mode":4,"attributes":{"POSITION":60,"NORMAL":61,"TEXCOORD_0":62},"indices":63,"material":0}]},{"primitives":[{"mode":4,"attributes":{"POSITION":64,"NORMAL":65,"TEXCOORD_0":66},"indices":67,"material":0}]},{"primitives":[{"mode":4,"attributes":{"POSITION":68,"NORMAL":69,"TEXCOORD_0":70},"indices":71,"material":0}]},{"primitives":[{"mode":4,"attributes":{"POSITION":72,"NORMAL":73,"TEXCOORD_0":74},"indices":75,"material":0}]}]}