{"asset":{"version":"2.0","generator":"Blockbench 5.1.1 glTF exporter"},"scenes":[{"nodes":[0,16],"name":"blockbench_export"}],"scene":0,"nodes":[{"name":"domki"},{"translation":[-0.09999999999999998,-0.125,0.17499999999999982],"name":"mesh","mesh":0},{"translation":[-0.09999999999999998,0.25,0.2999999999999998],"name":"mesh","mesh":1},{"rotation":[0,0,-0.3826834323650898,0.9238795325112867],"translation":[-0.2812500000000001,0.0625,0.18437499999999973],"name":"mesh","mesh":2},{"translation":[-0.09999999999999998,0.125,-0.20000000000000018],"name":"mesh","mesh":3},{"translation":[-0.09999999999999998,0.4375,-0.20000000000000018],"name":"mesh","mesh":4},{"rotation":[0.7071067811865475,0,0,0.7071067811865476],"translation":[0.2124999999999999,0.0625,0.3624999999999998],"name":"plane","mesh":5},{"rotation":[0.7071067811865475,0,0,0.7071067811865476],"translation":[0.2124999999999999,0.0625,-0.38749999999999996],"name":"plane","mesh":6},{"rotation":[0.4999999999999999,-0.49999999999999967,0.5000000000000001,0.5000000000000003],"translation":[0.3374999999999999,0.0625,-0.012500000000000178],"name":"plane","mesh":7},{"translation":[-0.09999999999999998,0.76875,-0.1937500000000001],"name":"pyramid","mesh":8},{"rotation":[0,0,0.9238795325112867,0.38268343236508984],"name":"mesh","mesh":9},{"rotation":[0,0,-0.3826834323650898,0.9238795325112867],"translation":[-0.3500000000000001,-0.3531249999999999,0],"name":"mesh","mesh":10},{"translation":[0.3812500000000001,0.1968749999999999,0.15312499999999973],"name":"group23","children":[10,11]},{"rotation":[0,0,0.9238795325112867,0.38268343236508984],"name":"mesh","mesh":11},{"rotation":[0,0,-0.3826834323650898,0.9238795325112867],"translation":[-0.3500000000000001,-0.3531249999999999,0],"name":"mesh","mesh":12},{"rotation":[0,-0.3007057995042731,0,0.9537169507482269],"translation":[0.3500000000000001,0.1968749999999999,-0.018750000000000266],"name":"group24","children":[13,14]},{"name":"Plains_house_2","children":[1,2,3,4,5,6,7,8,9,12,15]}],"bufferViews":[{"buffer":0,"byteOffset":0,"byteLength":288,"target":34962,"byteStride":12},{"buffer":0,"byteOffset":288,"byteLength":288,"target":34962,"byteStride":12},{"buffer":0,"byteOffset":576,"byteLength":192,"target":34962,"byteStride":8},{"buffer":0,"byteOffset":768,"byteLength":72,"target":34963},{"buffer":0,"byteOffset":840,"byteLength":288,"target":34962,"byteStride":12},{"buffer":0,"byteOffset":1128,"byteLength":288,"target":34962,"byteStride":12},{"buffer":0,"byteOffset":1416,"byteLength":192,"target":34962,"byteStride":8},{"buffer":0,"byteOffset":1608,"byteLength":72,"target":34963},{"buffer":0,"byteOffset":1680,"byteLength":168,"target":34962,"byteStride":12},{"buffer":0,"byteOffset":1848,"byteLength":168,"target":34962,"byteStride":12},{"buffer":0,"byteOffset":2016,"byteLength":112,"target":34962,"byteStride":8},{"buffer":0,"byteOffset":2128,"byteLength":36,"target":34963},{"buffer":0,"byteOffset":2164,"byteLength":288,"target":34962,"byteStride":12},{"buffer":0,"byteOffset":2452,"byteLength":288,"target":34962,"byteStride":12},{"buffer":0,"byteOffset":2740,"byteLength":192,"target":34962,"byteStride":8},{"buffer":0,"byteOffset":2932,"byteLength":72,"target":34963},{"buffer":0,"byteOffset":3004,"byteLength":288,"target":34962,"byteStride":12},{"buffer":0,"byteOffset":3292,"byteLength":288,"target":34962,"byteStride":12},{"buffer":0,"byteOffset":3580,"byteLength":192,"target":34962,"byteStride":8},{"buffer":0,"byteOffset":3772,"byteLength":72,"target":34963},{"buffer":0,"byteOffset":3844,"byteLength":48,"target":34962,"byteStride":12},{"buffer":0,"byteOffset":3892,"byteLength":48,"target":34962,"byteStride":12},{"buffer":0,"byteOffset":3940,"byteLength":32,"target":34962,"byteStride":8},{"buffer":0,"byteOffset":3972,"byteLength":12,"target":34963},{"buffer":0,"byteOffset":3984,"byteLength":48,"target":34962,"byteStride":12},{"buffer":0,"byteOffset":4032,"byteLength":48,"target":34962,"byteStride":12},{"buffer":0,"byteOffset":4080,"byteLength":32,"target":34962,"byteStride":8},{"buffer":0,"byteOffset":4112,"byteLength":12,"target":34963},{"buffer":0,"byteOffset":4124,"byteLength":48,"target":34962,"byteStride":12},{"buffer":0,"byteOffset":4172,"byteLength":48,"target":34962,"byteStride":12},{"buffer":0,"byteOffset":4220,"byteLength":32,"target":34962,"byteStride":8},{"buffer":0,"byteOffset":4252,"byteLength":12,"target":34963},{"buffer":0,"byteOffset":4264,"byteLength":192,"target":34962,"byteStride":12},{"buffer":0,"byteOffset":4456,"byteLength":192,"target":34962,"byteStride":12},{"buffer":0,"byteOffset":4648,"byteLength":128,"target":34962,"byteStride":8},{"buffer":0,"byteOffset":4776,"byteLength":36,"target":34963},{"buffer":0,"byteOffset":4812,"byteLength":168,"target":34962,"byteStride":12},{"buffer":0,"byteOffset":4980,"byteLength":168,"target":34962,"byteStride":12},{"buffer":0,"byteOffset":5148,"byteLength":112,"target":34962,"byteStride":8},{"buffer":0,"byteOffset":5260,"byteLength":36,"target":34963},{"buffer":0,"byteOffset":5296,"byteLength":168,"target":34962,"byteStride":12},{"buffer":0,"byteOffset":5464,"byteLength":168,"target":34962,"byteStride":12},{"buffer":0,"byteOffset":5632,"byteLength":112,"target":34962,"byteStride":8},{"buffer":0,"byteOffset":5744,"byteLength":36,"target":34963},{"buffer":0,"byteOffset":5780,"byteLength":168,"target":34962,"byteStride":12},{"buffer":0,"byteOffset":5948,"byteLength":168,"target":34962,"byteStride":12},{"buffer":0,"byteOffset":6116,"byteLength":112,"target":34962,"byteStride":8},{"buffer":0,"byteOffset":6228,"byteLength":36,"target":34963},{"buffer":0,"byteOffset":6264,"byteLength":168,"target":34962,"byteStride":12},{"buffer":0,"byteOffset":6432,"byteLength":168,"target":34962,"byteStride":12},{"buffer":0,"byteOffset":6600,"byteLength":112,"target":34962,"byteStride":8},{"buffer":0,"byteOffset":6712,"byteLength":36,"target":34963}],"buffers":[{"byteLength":6748,"uri":"data:application/octet-stream;base64,"}],"accessors":[{"bufferView":0,"componentType":5126,"count":24,"max":[0.1875,0.4375,0.1875],"min":[-0.1875,0.0625,-0.1875],"type":"VEC3"},{"bufferView":1,"componentType":5126,"count":24,"max":[1,1,1],"min":[-1,-1,-1],"type":"VEC3"},{"bufferView":2,"componentType":5126,"count":24,"max":[0.6640625,0.671875],"min":[0.0546875,0.203125],"type":"VEC2"},{"bufferView":3,"componentType":5123,"count":36,"max":[23],"min":[0],"type":"SCALAR"},{"bufferView":4,"componentType":5126,"count":24,"max":[0.046875,0.3125,0.046875],"min":[-0.046875,0.1875,-0.046875],"type":"VEC3"},{"bufferView":5,"componentType":5126,"count":24,"max":[1,1,1],"min":[-1,-1,-1],"type":"VEC3"},{"bufferView":6,"componentType":5126,"count":24,"max":[0.86328125,0.86328125],"min":[0.046875,0.0703125],"type":"VEC2"},{"bufferView":7,"componentType":5123,"count":36,"max":[23],"min":[0],"type":"SCALAR"},{"bufferView":8,"componentType":5126,"count":14,"max":[0.1875,0.4375,0.203125],"min":[-0.1875,0.0625,-0.203125],"type":"VEC3"},{"bufferView":9,"componentType":5126,"count":14,"max":[0,1,0],"min":[-1,0,-1],"type":"VEC3"},{"bufferView":10,"componentType":5126,"count":14,"max":[0.671875,0.578125],"min":[0,0.09375],"type":"VEC2"},{"bufferView":11,"componentType":5123,"count":18,"max":[13],"min":[0],"type":"SCALAR"},{"bufferView":12,"componentType":5126,"count":24,"max":[0.1875,0.625,0.1875],"min":[-0.1875,-0.125,-0.1875],"type":"VEC3"},{"bufferView":13,"componentType":5126,"count":24,"max":[1,1,1],"min":[-1,-1,-1],"type":"VEC3"},{"bufferView":14,"componentType":5126,"count":24,"max":[0.265625,0.6796875],"min":[0.0546875,0],"type":"VEC2"},{"bufferView":15,"componentType":5123,"count":36,"max":[23],"min":[0],"type":"SCALAR"},{"bufferView":16,"componentType":5126,"count":24,"max":[0.21875,0.328125,0.21875],"min":[-0.21875,0.171875,-0.21875],"type":"VEC3"},{"bufferView":17,"componentType":5126,"count":24,"max":[0.9805806875228882,1,0.9805806875228882],"min":[-0.9805806875228882,-1,-0.9805806875228882],"type":"VEC3"},{"bufferView":18,"componentType":5126,"count":24,"max":[0.8203125,0.6796875],"min":[0.0546875,0.0390625],"type":"VEC2"},{"bufferView":19,"componentType":5123,"count":36,"max":[23],"min":[0],"type":"SCALAR"},{"bufferView":20,"componentType":5126,"count":4,"max":[0.125,0,0.125],"min":[-0.125,0,-0.125],"type":"VEC3"},{"bufferView":21,"componentType":5126,"count":4,"max":[0,1,0],"min":[0,1,0],"type":"VEC3"},{"bufferView":22,"componentType":5126,"count":4,"max":[0.0546875,0.8125],"min":[0.0234375,0.78125],"type":"VEC2"},{"bufferView":23,"componentType":5123,"count":6,"max":[3],"min":[0],"type":"SCALAR"},{"bufferView":24,"componentType":5126,"count":4,"max":[0.125,0,0.125],"min":[-0.125,0,-0.125],"type":"VEC3"},{"bufferView":25,"componentType":5126,"count":4,"max":[0,1,0],"min":[0,1,0],"type":"VEC3"},{"bufferView":26,"componentType":5126,"count":4,"max":[0.09375,0.8125],"min":[0.0625,0.78125],"type":"VEC2"},{"bufferView":27,"componentType":5123,"count":6,"max":[3],"min":[0],"type":"SCALAR"},{"bufferView":28,"componentType":5126,"count":4,"max":[0.375,0,0.125],"min":[-0.375,0,-0.125],"type":"VEC3"},{"bufferView":29,"componentType":5126,"count":4,"max":[0,1,0],"min":[0,1,0],"type":"VEC3"},{"bufferView":30,"componentType":5126,"count":4,"max":[0.6015625,0.2109375],"min":[0.5078125,0.1796875],"type":"VEC2"},{"bufferView":31,"componentType":5123,"count":6,"max":[3],"min":[0],"type":"SCALAR"},{"bufferView":32,"componentType":5126,"count":16,"max":[0.25,0.25,0.265625],"min":[-0.25,0,-0.265625],"type":"VEC3"},{"bufferView":33,"componentType":5126,"count":16,"max":[0.7071067690849304,0.7282000184059143,0.6853647232055664],"min":[-0.7071067690849304,-1,-0.6853647232055664],"type":"VEC3"},{"bufferView":34,"componentType":5126,"count":16,"max":[0.6015625,0.5924711227416992],"min":[0.109375,0],"type":"VEC2"},{"bufferView":35,"componentType":5123,"count":18,"max":[15],"min":[0],"type":"SCALAR"},{"bufferView":36,"componentType":5126,"count":14,"max":[0.0625,0.3125,0.140625],"min":[-0.0625,0.1875,-0.140625],"type":"VEC3"},{"bufferView":37,"componentType":5126,"count":14,"max":[0,1,0],"min":[-1,0,-1],"type":"VEC3"},{"bufferView":38,"componentType":5126,"count":14,"max":[0.671875,0.578125],"min":[0,0.09375],"type":"VEC2"},{"bufferView":39,"componentType":5123,"count":18,"max":[13],"min":[0],"type":"SCALAR"},{"bufferView":40,"componentType":5126,"count":14,"max":[0.0625,0.3125,0.140625],"min":[-0.0625,0.1875,-0.140625],"type":"VEC3"},{"bufferView":41,"componentType":5126,"count":14,"max":[0,1,0],"min":[-1,0,-1],"type":"VEC3"},{"bufferView":42,"componentType":5126,"count":14,"max":[0.671875,0.578125],"min":[0,0.09375],"type":"VEC2"},{"bufferView":43,"componentType":5123,"count":18,"max":[13],"min":[0],"type":"SCALAR"},{"bufferView":44,"componentType":5126,"count":14,"max":[0.0625,0.3125,0.078125],"min":[-0.0625,0.1875,-0.078125],"type":"VEC3"},{"bufferView":45,"componentType":5126,"count":14,"max":[0,1,0],"min":[-1,0,-1],"type":"VEC3"},{"bufferView":46,"componentType":5126,"count":14,"max":[0.671875,0.578125],"min":[0,0.09375],"type":"VEC2"},{"bufferView":47,"componentType":5123,"count":18,"max":[13],"min":[0],"type":"SCALAR"},{"bufferView":48,"componentType":5126,"count":14,"max":[0.0625,0.3125,0.078125],"min":[-0.0625,0.1875,-0.078125],"type":"VEC3"},{"bufferView":49,"componentType":5126,"count":14,"max":[0,1,0],"min":[-1,0,-1],"type":"VEC3"},{"bufferView":50,"componentType":5126,"count":14,"max":[0.671875,0.578125],"min":[0,0.09375],"type":"VEC2"},{"bufferView":51,"componentType":5123,"count":18,"max":[13],"min":[0],"type":"SCALAR"}],"materials":[{"pbrMetallicRoughness":{"metallicFactor":0,"roughnessFactor":1,"baseColorTexture":{"index":0}},"alphaMode":"MASK","alphaCutoff":0.05,"doubleSided":true}],"textures":[{"sampler":0,"source":0,"name":"houses"}],"samplers":[{"magFilter":9728,"minFilter":9728,"wrapS":33071,"wrapT":33071}],"images":[{"mimeType":"image/png","uri":"data:image/png;base64,"}],"meshes":[{"primitives":[{"mode":4,"attributes":{"POSITION":0,"NORMAL":1,"TEXCOORD_0":2},"indices":3,"material":0}]},{"primitives":[{"mode":4,"attributes":{"POSITION":4,"NORMAL":5,"TEXCOORD_0":6},"indices":7,"material":0}]},{"primitives":[{"mode":4,"attributes":{"POSITION":8,"NORMAL":9,"TEXCOORD_0":10},"indices":11,"material":0}]},{"primitives":[{"mode":4,"attributes":{"POSITION":12,"NORMAL":13,"TEXCOORD_0":14},"indices":15,"material":0}]},{"primitives":[{"mode":4,"attributes":{"POSITION":16,"NORMAL":17,"TEXCOORD_0":18},"indices":19,"material":0}]},{"primitives":[{"mode":4,"attributes":{"POSITION":20,"NORMAL":21,"TEXCOORD_0":22},"indices":23,"material":0}]},{"primitives":[{"mode":4,"attributes":{"POSITION":24,"NORMAL":25,"TEXCOORD_0":26},"indices":27,"material":0}]},{"primitives":[{"mode":4,"attributes":{"POSITION":28,"NORMAL":29,"TEXCOORD_0":30},"indices":31,"material":0}]},{"primitives":[{"mode":4,"attributes":{"POSITION":32,"NORMAL":33,"TEXCOORD_0":34},"indices":35,"material":0}]},{"primitives":[{"mode":4,"attributes":{"POSITION":36,"NORMAL":37,"TEXCOORD_0":38},"indices":39,"material":0}]},{"primitives":[{"mode":4,"attributes":{"POSITION":40,"NORMAL":41,"TEXCOORD_0":42},"indices":43,"material":0}]},{"primitives":[{"mode":4,"attributes":{"POSITION":44,"NORMAL":45,"TEXCOORD_0":46},"indices":47,"material":0}]},{"primitives":[{"mode":4,"attributes":{"POSITION":48,"NORMAL":49,"TEXCOORD_0":50},"indices":51,"material":0}]}]}