{"asset":{"version":"2.0","generator":"Blockbench 5.1.1 glTF exporter"},"scenes":[{"nodes":[0,13],"name":"blockbench_export"}],"scene":0,"nodes":[{"name":"domki"},{"translation":[-0.09999999999999998,0.25,-0.25],"name":"mesh","mesh":0},{"rotation":[0,0,-0.3826834323650898,0.9238795325112867],"translation":[-0.2812500000000001,0.0625,0],"name":"mesh","mesh":1},{"rotation":[0.7071067811865475,0,0,0.7071067811865476],"translation":[0.21250000000000002,0.0625,0.3125],"name":"plane","mesh":2},{"rotation":[0.7071067811865475,0,0,0.7071067811865476],"translation":[0.21250000000000002,0.0625,-0.3125],"name":"plane","mesh":3},{"rotation":[0.4999999999999999,-0.49999999999999967,0.5000000000000001,0.5000000000000003],"translation":[0.3374999999999999,0.0625,0],"name":"plane","mesh":4},{"rotation":[0,0,0.9238795325112867,0.38268343236508984],"name":"mesh","mesh":5},{"rotation":[0,0,-0.3826834323650898,0.9238795325112867],"translation":[-0.3500000000000001,-0.3531249999999999,0],"name":"mesh","mesh":6},{"translation":[0.3812500000000001,0.2281249999999999,0.16874999999999973],"name":"group25","children":[6,7]},{"rotation":[0,0,0.9238795325112867,0.38268343236508984],"name":"mesh","mesh":7},{"rotation":[0,0,-0.3826834323650898,0.9238795325112867],"translation":[-0.3500000000000001,-0.3531249999999999,0],"name":"mesh","mesh":8},{"rotation":[-0.5132799671593365,-0.2126075236918141,-0.31818964514320847,0.7681777567114165],"translation":[0.4281250000000001,0.02499999999999991,0.028124999999999734],"name":"group26","children":[9,10]},{"translation":[-0.09999999999999998,-0.125,0],"name":"mesh","mesh":9},{"name":"plains_house_1","children":[1,2,3,4,5,8,11,12]}],"bufferViews":[{"buffer":0,"byteOffset":0,"byteLength":288,"target":34962,"byteStride":12},{"buffer":0,"byteOffset":288,"byteLength":288,"target":34962,"byteStride":12},{"buffer":0,"byteOffset":576,"byteLength":192,"target":34962,"byteStride":8},{"buffer":0,"byteOffset":768,"byteLength":72,"target":34963},{"buffer":0,"byteOffset":840,"byteLength":168,"target":34962,"byteStride":12},{"buffer":0,"byteOffset":1008,"byteLength":168,"target":34962,"byteStride":12},{"buffer":0,"byteOffset":1176,"byteLength":112,"target":34962,"byteStride":8},{"buffer":0,"byteOffset":1288,"byteLength":36,"target":34963},{"buffer":0,"byteOffset":1324,"byteLength":48,"target":34962,"byteStride":12},{"buffer":0,"byteOffset":1372,"byteLength":48,"target":34962,"byteStride":12},{"buffer":0,"byteOffset":1420,"byteLength":32,"target":34962,"byteStride":8},{"buffer":0,"byteOffset":1452,"byteLength":12,"target":34963},{"buffer":0,"byteOffset":1464,"byteLength":48,"target":34962,"byteStride":12},{"buffer":0,"byteOffset":1512,"byteLength":48,"target":34962,"byteStride":12},{"buffer":0,"byteOffset":1560,"byteLength":32,"target":34962,"byteStride":8},{"buffer":0,"byteOffset":1592,"byteLength":12,"target":34963},{"buffer":0,"byteOffset":1604,"byteLength":48,"target":34962,"byteStride":12},{"buffer":0,"byteOffset":1652,"byteLength":48,"target":34962,"byteStride":12},{"buffer":0,"byteOffset":1700,"byteLength":32,"target":34962,"byteStride":8},{"buffer":0,"byteOffset":1732,"byteLength":12,"target":34963},{"buffer":0,"byteOffset":1744,"byteLength":168,"target":34962,"byteStride":12},{"buffer":0,"byteOffset":1912,"byteLength":168,"target":34962,"byteStride":12},{"buffer":0,"byteOffset":2080,"byteLength":112,"target":34962,"byteStride":8},{"buffer":0,"byteOffset":2192,"byteLength":36,"target":34963},{"buffer":0,"byteOffset":2228,"byteLength":168,"target":34962,"byteStride":12},{"buffer":0,"byteOffset":2396,"byteLength":168,"target":34962,"byteStride":12},{"buffer":0,"byteOffset":2564,"byteLength":112,"target":34962,"byteStride":8},{"buffer":0,"byteOffset":2676,"byteLength":36,"target":34963},{"buffer":0,"byteOffset":2712,"byteLength":168,"target":34962,"byteStride":12},{"buffer":0,"byteOffset":2880,"byteLength":168,"target":34962,"byteStride":12},{"buffer":0,"byteOffset":3048,"byteLength":112,"target":34962,"byteStride":8},{"buffer":0,"byteOffset":3160,"byteLength":36,"target":34963},{"buffer":0,"byteOffset":3196,"byteLength":168,"target":34962,"byteStride":12},{"buffer":0,"byteOffset":3364,"byteLength":168,"target":34962,"byteStride":12},{"buffer":0,"byteOffset":3532,"byteLength":112,"target":34962,"byteStride":8},{"buffer":0,"byteOffset":3644,"byteLength":36,"target":34963},{"buffer":0,"byteOffset":3680,"byteLength":288,"target":34962,"byteStride":12},{"buffer":0,"byteOffset":3968,"byteLength":288,"target":34962,"byteStride":12},{"buffer":0,"byteOffset":4256,"byteLength":192,"target":34962,"byteStride":8},{"buffer":0,"byteOffset":4448,"byteLength":72,"target":34963}],"buffers":[{"byteLength":4520,"uri":"data:application/octet-stream;base64,"}],"accessors":[{"bufferView":0,"componentType":5126,"count":24,"max":[0.046875,0.3125,0.046875],"min":[-0.046875,0.1875,-0.046875],"type":"VEC3"},{"bufferView":1,"componentType":5126,"count":24,"max":[1,1,1],"min":[-1,-1,-1],"type":"VEC3"},{"bufferView":2,"componentType":5126,"count":24,"max":[0.86328125,0.86328125],"min":[0.1875,0.421875],"type":"VEC2"},{"bufferView":3,"componentType":5123,"count":36,"max":[23],"min":[0],"type":"SCALAR"},{"bufferView":4,"componentType":5126,"count":14,"max":[0.1875,0.4375,0.34375],"min":[-0.1875,0.0625,-0.34375],"type":"VEC3"},{"bufferView":5,"componentType":5126,"count":14,"max":[0,1,0],"min":[-1,0,-1],"type":"VEC3"},{"bufferView":6,"componentType":5126,"count":14,"max":[0.625,0.625],"min":[0.328125,0.1796875],"type":"VEC2"},{"bufferView":7,"componentType":5123,"count":18,"max":[13],"min":[0],"type":"SCALAR"},{"bufferView":8,"componentType":5126,"count":4,"max":[0.125,0,0.0625],"min":[-0.125,0,-0.0625],"type":"VEC3"},{"bufferView":9,"componentType":5126,"count":4,"max":[0,1,0],"min":[0,1,0],"type":"VEC3"},{"bufferView":10,"componentType":5126,"count":4,"max":[0.53125,0.5703125],"min":[0.5,0.5546875],"type":"VEC2"},{"bufferView":11,"componentType":5123,"count":6,"max":[3],"min":[0],"type":"SCALAR"},{"bufferView":12,"componentType":5126,"count":4,"max":[0.125,0,0.0625],"min":[-0.125,0,-0.0625],"type":"VEC3"},{"bufferView":13,"componentType":5126,"count":4,"max":[0,1,0],"min":[0,1,0],"type":"VEC3"},{"bufferView":14,"componentType":5126,"count":4,"max":[0.4765625,0.8125],"min":[0.4453125,0.796875],"type":"VEC2"},{"bufferView":15,"componentType":5123,"count":6,"max":[3],"min":[0],"type":"SCALAR"},{"bufferView":16,"componentType":5126,"count":4,"max":[0.3125,0,0.0625],"min":[-0.3125,0,-0.0625],"type":"VEC3"},{"bufferView":17,"componentType":5126,"count":4,"max":[0,1,0],"min":[0,1,0],"type":"VEC3"},{"bufferView":18,"componentType":5126,"count":4,"max":[0.796875,0.2421875],"min":[0.71875,0.2265625],"type":"VEC2"},{"bufferView":19,"componentType":5123,"count":6,"max":[3],"min":[0],"type":"SCALAR"},{"bufferView":20,"componentType":5126,"count":14,"max":[0.046875,0.296875,0.09375],"min":[-0.046875,0.203125,-0.09375],"type":"VEC3"},{"bufferView":21,"componentType":5126,"count":14,"max":[0,1,0],"min":[-1,0,-1],"type":"VEC3"},{"bufferView":22,"componentType":5126,"count":14,"max":[0.671875,0.578125],"min":[0,0.09375],"type":"VEC2"},{"bufferView":23,"componentType":5123,"count":18,"max":[13],"min":[0],"type":"SCALAR"},{"bufferView":24,"componentType":5126,"count":14,"max":[0.046875,0.296875,0.09375],"min":[-0.046875,0.203125,-0.09375],"type":"VEC3"},{"bufferView":25,"componentType":5126,"count":14,"max":[0,1,0],"min":[-1,0,-1],"type":"VEC3"},{"bufferView":26,"componentType":5126,"count":14,"max":[0.671875,0.578125],"min":[0,0.09375],"type":"VEC2"},{"bufferView":27,"componentType":5123,"count":18,"max":[13],"min":[0],"type":"SCALAR"},{"bufferView":28,"componentType":5126,"count":14,"max":[0.046875,0.296875,0.09375],"min":[-0.046875,0.203125,-0.09375],"type":"VEC3"},{"bufferView":29,"componentType":5126,"count":14,"max":[0,1,0],"min":[-1,0,-1],"type":"VEC3"},{"bufferView":30,"componentType":5126,"count":14,"max":[0.671875,0.578125],"min":[0,0.09375],"type":"VEC2"},{"bufferView":31,"componentType":5123,"count":18,"max":[13],"min":[0],"type":"SCALAR"},{"bufferView":32,"componentType":5126,"count":14,"max":[0.046875,0.296875,0.09375],"min":[-0.046875,0.203125,-0.09375],"type":"VEC3"},{"bufferView":33,"componentType":5126,"count":14,"max":[0,1,0],"min":[-1,0,-1],"type":"VEC3"},{"bufferView":34,"componentType":5126,"count":14,"max":[0.671875,0.578125],"min":[0,0.09375],"type":"VEC2"},{"bufferView":35,"componentType":5123,"count":18,"max":[13],"min":[0],"type":"SCALAR"},{"bufferView":36,"componentType":5126,"count":24,"max":[0.1875,0.4375,0.3125],"min":[-0.1875,0.0625,-0.3125],"type":"VEC3"},{"bufferView":37,"componentType":5126,"count":24,"max":[1,1,1],"min":[-1,-1,-1],"type":"VEC3"},{"bufferView":38,"componentType":5126,"count":24,"max":[0.5390625,0.625],"min":[0.109375,0.078125],"type":"VEC2"},{"bufferView":39,"componentType":5123,"count":36,"max":[23],"min":[0],"type":"SCALAR"}],"materials":[{"pbrMetallicRoughness":{"metallicFactor":0,"roughnessFactor":1,"baseColorTexture":{"index":0}},"alphaMode":"MASK","alphaCutoff":0.05,"doubleSided":true}],"textures":[{"sampler":0,"source":0,"name":"houses"}],"samplers":[{"magFilter":9728,"minFilter":9728,"wrapS":33071,"wrapT":33071}],"images":[{"mimeType":"image/png","uri":"data:image/png;base64,"}],"meshes":[{"primitives":[{"mode":4,"attributes":{"POSITION":0,"NORMAL":1,"TEXCOORD_0":2},"indices":3,"material":0}]},{"primitives":[{"mode":4,"attributes":{"POSITION":4,"NORMAL":5,"TEXCOORD_0":6},"indices":7,"material":0}]},{"primitives":[{"mode":4,"attributes":{"POSITION":8,"NORMAL":9,"TEXCOORD_0":10},"indices":11,"material":0}]},{"primitives":[{"mode":4,"attributes":{"POSITION":12,"NORMAL":13,"TEXCOORD_0":14},"indices":15,"material":0}]},{"primitives":[{"mode":4,"attributes":{"POSITION":16,"NORMAL":17,"TEXCOORD_0":18},"indices":19,"material":0}]},{"primitives":[{"mode":4,"attributes":{"POSITION":20,"NORMAL":21,"TEXCOORD_0":22},"indices":23,"material":0}]},{"primitives":[{"mode":4,"attributes":{"POSITION":24,"NORMAL":25,"TEXCOORD_0":26},"indices":27,"material":0}]},{"primitives":[{"mode":4,"attributes":{"POSITION":28,"NORMAL":29,"TEXCOORD_0":30},"indices":31,"material":0}]},{"primitives":[{"mode":4,"attributes":{"POSITION":32,"NORMAL":33,"TEXCOORD_0":34},"indices":35,"material":0}]},{"primitives":[{"mode":4,"attributes":{"POSITION":36,"NORMAL":37,"TEXCOORD_0":38},"indices":39,"material":0}]}]}