{"asset":{"version":"2.0","generator":"Blockbench 5.1.1 glTF exporter"},"scenes":[{"nodes":[3],"name":"blockbench_export"}],"scene":0,"nodes":[{"rotation":[0,-0.3420201433256687,0,0.9396926207859084],"translation":[-0.046875,0.009375000000000022,-0.265625],"name":"sphere","mesh":0},{"rotation":[0,-0.3420201433256687,0,0.9396926207859084],"translation":[-0.234375,-0.021874999999999978,-0.296875],"name":"sphere","mesh":1},{"rotation":[0,-0.659345815100069,0,0.7518398074789774],"translation":[0.21875,0.19687500000000002,-0.265625],"name":"group"},{"translation":[0.125,0.015625,0.25],"name":"fotest trees","children":[0,1,2]}],"bufferViews":[{"buffer":0,"byteOffset":0,"byteLength":504,"target":34962,"byteStride":12},{"buffer":0,"byteOffset":504,"byteLength":504,"target":34962,"byteStride":12},{"buffer":0,"byteOffset":1008,"byteLength":336,"target":34962,"byteStride":8},{"buffer":0,"byteOffset":1344,"byteLength":108,"target":34963},{"buffer":0,"byteOffset":1452,"byteLength":504,"target":34962,"byteStride":12},{"buffer":0,"byteOffset":1956,"byteLength":504,"target":34962,"byteStride":12},{"buffer":0,"byteOffset":2460,"byteLength":336,"target":34962,"byteStride":8},{"buffer":0,"byteOffset":2796,"byteLength":108,"target":34963}],"buffers":[{"byteLength":2904,"uri":"data:application/octet-stream;base64,"}],"accessors":[{"bufferView":0,"componentType":5126,"count":42,"max":[0.171875,0.09687499701976776,0.1361377090215683],"min":[-0.171875,-0.0716765895485878,-0.1361377090215683],"type":"VEC3"},{"bufferView":1,"componentType":5126,"count":42,"max":[0.8256468772888184,0.9857932925224304,0.9237945675849915],"min":[-0.8256468772888184,0.21602082252502441,-0.9237945675849915],"type":"VEC3"},{"bufferView":2,"componentType":5126,"count":42,"max":[0.65234375,0.6106632947921753],"min":[0.484375,0],"type":"VEC2"},{"bufferView":3,"componentType":5123,"count":54,"max":[41],"min":[0],"type":"SCALAR"},{"bufferView":4,"componentType":5126,"count":42,"max":[0.109375,0.09687499701976776,0.1048877015709877],"min":[-0.109375,-0.0716765895485878,-0.1048877015709877],"type":"VEC3"},{"bufferView":5,"componentType":5126,"count":42,"max":[0.8772031664848328,0.966920793056488,0.9526085257530212],"min":[-0.8772031664848328,0.14605176448822021,-0.9526085257530212],"type":"VEC3"},{"bufferView":6,"componentType":5126,"count":42,"max":[0.65234375,0.6106632947921753],"min":[0.484375,0],"type":"VEC2"},{"bufferView":7,"componentType":5123,"count":54,"max":[41],"min":[0],"type":"SCALAR"}],"materials":[{"pbrMetallicRoughness":{"metallicFactor":0,"roughnessFactor":1,"baseColorTexture":{"index":0}},"alphaMode":"MASK","alphaCutoff":0.05,"doubleSided":true}],"textures":[{"sampler":0,"source":0,"name":"Forest_trees"}],"samplers":[{"magFilter":9728,"minFilter":9728,"wrapS":33071,"wrapT":33071}],"images":[{"mimeType":"image/png","uri":"data:image/png;base64,"}],"meshes":[{"primitives":[{"mode":4,"attributes":{"POSITION":0,"NORMAL":1,"TEXCOORD_0":2},"indices":3,"material":0}]},{"primitives":[{"mode":4,"attributes":{"POSITION":4,"NORMAL":5,"TEXCOORD_0":6},"indices":7,"material":0}]}]}