{"asset":{"version":"2.0","generator":"Blockbench 5.1.1 glTF exporter"},"scenes":[{"nodes":[5],"name":"blockbench_export"}],"scene":0,"nodes":[{"rotation":[-0.15263025307433242,0.2943608768143724,-0.3174778431972583,0.8884050310113939],"translation":[0.0625,-0.25,-0.125],"name":"sphere","mesh":0},{"rotation":[0.274337756511911,-0.9261487446648243,0.07350858031073301,-0.24816080820403913],"translation":[-0.078125,-0.234375,-0.09375],"name":"sphere","mesh":1},{"rotation":[-0.30296714108225786,0.8593691407969751,0.17971946611083092,-0.37067034514666786],"translation":[0,-0.26249999999999996,0.018750000000000003],"name":"sphere","mesh":2},{"rotation":[0.04929600691150644,-0.35345084821732553,-0.29453749460692763,0.8865044082618585],"translation":[0.109375,-0.234375,-0.006249999999999999],"name":"sphere","mesh":3},{"rotation":[0,-0.659345815100069,0,0.7518398074789774],"translation":[0.21875,0.19687500000000002,-0.265625],"name":"group","children":[0,1,2,3]},{"translation":[-0.28125,0,0.25],"name":"fotest trees","children":[4]}],"bufferViews":[{"buffer":0,"byteOffset":0,"byteLength":96,"target":34962,"byteStride":12},{"buffer":0,"byteOffset":96,"byteLength":96,"target":34962,"byteStride":12},{"buffer":0,"byteOffset":192,"byteLength":64,"target":34962,"byteStride":8},{"buffer":0,"byteOffset":256,"byteLength":24,"target":34963},{"buffer":0,"byteOffset":280,"byteLength":96,"target":34962,"byteStride":12},{"buffer":0,"byteOffset":376,"byteLength":96,"target":34962,"byteStride":12},{"buffer":0,"byteOffset":472,"byteLength":64,"target":34962,"byteStride":8},{"buffer":0,"byteOffset":536,"byteLength":24,"target":34963},{"buffer":0,"byteOffset":560,"byteLength":96,"target":34962,"byteStride":12},{"buffer":0,"byteOffset":656,"byteLength":96,"target":34962,"byteStride":12},{"buffer":0,"byteOffset":752,"byteLength":64,"target":34962,"byteStride":8},{"buffer":0,"byteOffset":816,"byteLength":24,"target":34963},{"buffer":0,"byteOffset":840,"byteLength":96,"target":34962,"byteStride":12},{"buffer":0,"byteOffset":936,"byteLength":96,"target":34962,"byteStride":12},{"buffer":0,"byteOffset":1032,"byteLength":64,"target":34962,"byteStride":8},{"buffer":0,"byteOffset":1096,"byteLength":24,"target":34963}],"buffers":[{"byteLength":1120,"uri":"data:application/octet-stream;base64,"}],"accessors":[{"bufferView":0,"componentType":5126,"count":8,"max":[-0.0546875,0.2197420597076416,0.0736377015709877],"min":[-0.0910099521279335,-0.0716765895485878,-0.053550589829683304],"type":"VEC3"},{"bufferView":1,"componentType":5126,"count":8,"max":[-0.9806092381477356,0.11514739692211151,0.15857669711112976],"min":[-0.987456202507019,0.05921055004000664,-0.14637060463428497],"type":"VEC3"},{"bufferView":2,"componentType":5126,"count":8,"max":[0.6328125,0.6106632947921753],"min":[0.484375,0],"type":"VEC2"},{"bufferView":3,"componentType":5123,"count":12,"max":[7],"min":[0],"type":"SCALAR"},{"bufferView":4,"componentType":5126,"count":8,"max":[-0.0546875,0.2197420597076416,0.0736377015709877],"min":[-0.0910099521279335,-0.0716765895485878,-0.053550589829683304],"type":"VEC3"},{"bufferView":5,"componentType":5126,"count":8,"max":[-0.9806092381477356,0.11514739692211151,0.15857669711112976],"min":[-0.987456202507019,0.05921055004000664,-0.14637060463428497],"type":"VEC3"},{"bufferView":6,"componentType":5126,"count":8,"max":[0.6328125,0.6106632947921753],"min":[0.484375,0],"type":"VEC2"},{"bufferView":7,"componentType":5123,"count":12,"max":[7],"min":[0],"type":"SCALAR"},{"bufferView":8,"componentType":5126,"count":8,"max":[-0.0546875,0.2197420597076416,0.0736377015709877],"min":[-0.0910099521279335,-0.0716765895485878,-0.053550589829683304],"type":"VEC3"},{"bufferView":9,"componentType":5126,"count":8,"max":[-0.9806092381477356,0.11514739692211151,0.15857669711112976],"min":[-0.987456202507019,0.05921055004000664,-0.14637060463428497],"type":"VEC3"},{"bufferView":10,"componentType":5126,"count":8,"max":[0.6328125,0.6106632947921753],"min":[0.484375,0],"type":"VEC2"},{"bufferView":11,"componentType":5123,"count":12,"max":[7],"min":[0],"type":"SCALAR"},{"bufferView":12,"componentType":5126,"count":8,"max":[-0.0546875,0.2197420597076416,0.0736377015709877],"min":[-0.0910099521279335,-0.0716765895485878,-0.053550589829683304],"type":"VEC3"},{"bufferView":13,"componentType":5126,"count":8,"max":[-0.9806092381477356,0.11514739692211151,0.15857669711112976],"min":[-0.987456202507019,0.05921055004000664,-0.14637060463428497],"type":"VEC3"},{"bufferView":14,"componentType":5126,"count":8,"max":[0.6328125,0.6106632947921753],"min":[0.484375,0],"type":"VEC2"},{"bufferView":15,"componentType":5123,"count":12,"max":[7],"min":[0],"type":"SCALAR"}],"materials":[{"pbrMetallicRoughness":{"metallicFactor":0,"roughnessFactor":1,"baseColorTexture":{"index":0}},"alphaMode":"MASK","alphaCutoff":0.05,"doubleSided":true}],"textures":[{"sampler":0,"source":0,"name":"Forest_trees"}],"samplers":[{"magFilter":9728,"minFilter":9728,"wrapS":33071,"wrapT":33071}],"images":[{"mimeType":"image/png","uri":"data:image/png;base64,"}],"meshes":[{"primitives":[{"mode":4,"attributes":{"POSITION":0,"NORMAL":1,"TEXCOORD_0":2},"indices":3,"material":0}]},{"primitives":[{"mode":4,"attributes":{"POSITION":4,"NORMAL":5,"TEXCOORD_0":6},"indices":7,"material":0}]},{"primitives":[{"mode":4,"attributes":{"POSITION":8,"NORMAL":9,"TEXCOORD_0":10},"indices":11,"material":0}]},{"primitives":[{"mode":4,"attributes":{"POSITION":12,"NORMAL":13,"TEXCOORD_0":14},"indices":15,"material":0}]}]}