{"asset":{"version":"2.0","generator":"Blockbench 5.1.1 glTF exporter"},"scenes":[{"nodes":[0,1,2,3,4,5],"name":"blockbench_export"}],"scene":0,"nodes":[{"translation":[0,0,0.0625],"name":"cylinder","mesh":0},{"translation":[-0.25,0,0],"name":"fotest trees"},{"translation":[0,-0.03125,0.003124999999999989],"name":"sphere","mesh":1},{"rotation":[0,-0.19509032201612825,0,0.9807852804032304],"translation":[0,0.078125,0.003124999999999989],"name":"sphere","mesh":2},{"translation":[0,0.171875,0.003124999999999989],"name":"sphere","mesh":3},{"rotation":[0,0.19509032201612825,0,0.9807852804032304],"translation":[0,0.265625,0.003124999999999989],"name":"sphere","mesh":4}],"bufferViews":[{"buffer":0,"byteOffset":0,"byteLength":420,"target":34962,"byteStride":12},{"buffer":0,"byteOffset":420,"byteLength":420,"target":34962,"byteStride":12},{"buffer":0,"byteOffset":840,"byteLength":280,"target":34962,"byteStride":8},{"buffer":0,"byteOffset":1120,"byteLength":92,"target":34963},{"buffer":0,"byteOffset":1212,"byteLength":216,"target":34962,"byteStride":12},{"buffer":0,"byteOffset":1428,"byteLength":216,"target":34962,"byteStride":12},{"buffer":0,"byteOffset":1644,"byteLength":144,"target":34962,"byteStride":8},{"buffer":0,"byteOffset":1788,"byteLength":36,"target":34963},{"buffer":0,"byteOffset":1824,"byteLength":216,"target":34962,"byteStride":12},{"buffer":0,"byteOffset":2040,"byteLength":216,"target":34962,"byteStride":12},{"buffer":0,"byteOffset":2256,"byteLength":144,"target":34962,"byteStride":8},{"buffer":0,"byteOffset":2400,"byteLength":36,"target":34963},{"buffer":0,"byteOffset":2436,"byteLength":216,"target":34962,"byteStride":12},{"buffer":0,"byteOffset":2652,"byteLength":216,"target":34962,"byteStride":12},{"buffer":0,"byteOffset":2868,"byteLength":144,"target":34962,"byteStride":8},{"buffer":0,"byteOffset":3012,"byteLength":36,"target":34963},{"buffer":0,"byteOffset":3048,"byteLength":216,"target":34962,"byteStride":12},{"buffer":0,"byteOffset":3264,"byteLength":216,"target":34962,"byteStride":12},{"buffer":0,"byteOffset":3480,"byteLength":144,"target":34962,"byteStride":8},{"buffer":0,"byteOffset":3624,"byteLength":36,"target":34963}],"buffers":[{"byteLength":3660,"uri":"data:application/octet-stream;base64,"}],"accessors":[{"bufferView":0,"componentType":5126,"count":35,"max":[0.056535251438617706,0.5,-6.245004513516506e-17],"min":[-0.056535251438617706,0,-0.1180339902639389],"type":"VEC3"},{"bufferView":1,"componentType":5126,"count":35,"max":[0.9588696360588074,1,1],"min":[-0.9588696360588074,0,-0.781834065914154],"type":"VEC3"},{"bufferView":2,"componentType":5126,"count":35,"max":[0.6547593474388123,0.6875],"min":[0,0.40625],"type":"VEC2"},{"bufferView":3,"componentType":5123,"count":45,"max":[34],"min":[0],"type":"SCALAR"},{"bufferView":4,"componentType":5126,"count":18,"max":[0.28125,0.34375,0.2455127090215683],"min":[-0.28125,0.1770833283662796,-0.2455127090215683],"type":"VEC3"},{"bufferView":5,"componentType":5126,"count":18,"max":[0.48936575651168823,0.8273680806159973,0.5616600513458252],"min":[-0.48936575651168823,0.8258047103881836,-0.5616600513458252],"type":"VEC3"},{"bufferView":6,"componentType":5126,"count":18,"max":[0.3939306437969208,0.30855947732925415],"min":[0.15685059130191803,0],"type":"VEC2"},{"bufferView":7,"componentType":5123,"count":18,"max":[17],"min":[0],"type":"SCALAR"},{"bufferView":8,"componentType":5126,"count":18,"max":[0.21875,0.34375,0.1986377090215683],"min":[-0.21875,0.1770833283662796,-0.1986377090215683],"type":"VEC3"},{"bufferView":9,"componentType":5126,"count":18,"max":[0.5748792886734009,0.7660637497901917,0.6427646279335022],"min":[-0.5748792886734009,0.7545291185379028,-0.6427646279335022],"type":"VEC3"},{"bufferView":10,"componentType":5126,"count":18,"max":[0.5037096738815308,0.4766055941581726],"min":[0.0019321141298860312,0],"type":"VEC2"},{"bufferView":11,"componentType":5123,"count":18,"max":[17],"min":[0],"type":"SCALAR"},{"bufferView":12,"componentType":5126,"count":18,"max":[0.171875,0.34375,0.1361377090215683],"min":[-0.171875,0.1770833283662796,-0.1361377090215683],"type":"VEC3"},{"bufferView":13,"componentType":5126,"count":18,"max":[0.6373230814933777,0.6572394371032715,0.7744715809822083],"min":[-0.6373230814933777,0.6326087117195129,-0.7744715809822083],"type":"VEC3"},{"bufferView":14,"componentType":5126,"count":18,"max":[0.5703125,0.5527995824813843],"min":[0.046875,0],"type":"VEC2"},{"bufferView":15,"componentType":5123,"count":18,"max":[17],"min":[0],"type":"SCALAR"},{"bufferView":16,"componentType":5126,"count":18,"max":[0.125,0.34375,0.1048877015709877],"min":[-0.125,0.1770833283662796,-0.1048877015709877],"type":"VEC3"},{"bufferView":17,"componentType":5126,"count":18,"max":[0.7221454381942749,0.5416091084480286,0.8463485836982727],"min":[-0.7221454381942749,0.5326293706893921,-0.8463485836982727],"type":"VEC3"},{"bufferView":18,"componentType":5126,"count":18,"max":[0.6242679357528687,0.6770845651626587],"min":[0.04760708659887314,0.1875],"type":"VEC2"},{"bufferView":19,"componentType":5123,"count":18,"max":[17],"min":[0],"type":"SCALAR"}],"materials":[{"pbrMetallicRoughness":{"metallicFactor":0,"roughnessFactor":1,"baseColorTexture":{"index":0}},"alphaMode":"MASK","alphaCutoff":0.05,"doubleSided":true}],"textures":[{"sampler":0,"source":0,"name":"Forest_trees"}],"samplers":[{"magFilter":9728,"minFilter":9728,"wrapS":33071,"wrapT":33071}],"images":[{"mimeType":"image/png","uri":"data:image/png;base64,"}],"meshes":[{"primitives":[{"mode":4,"attributes":{"POSITION":0,"NORMAL":1,"TEXCOORD_0":2},"indices":3,"material":0}]},{"primitives":[{"mode":4,"attributes":{"POSITION":4,"NORMAL":5,"TEXCOORD_0":6},"indices":7,"material":0}]},{"primitives":[{"mode":4,"attributes":{"POSITION":8,"NORMAL":9,"TEXCOORD_0":10},"indices":11,"material":0}]},{"primitives":[{"mode":4,"attributes":{"POSITION":12,"NORMAL":13,"TEXCOORD_0":14},"indices":15,"material":0}]},{"primitives":[{"mode":4,"attributes":{"POSITION":16,"NORMAL":17,"TEXCOORD_0":18},"indices":19,"material":0}]}]}