{"asset":{"version":"2.0","generator":"Blockbench 5.1.1 glTF exporter"},"scenes":[{"nodes":[5],"name":"blockbench_export"}],"scene":0,"nodes":[{"translation":[-0.25,0,-0.015625],"name":"cylinder","mesh":0},{"translation":[-0.1875,0.4375,-0.015625],"name":"sphere","mesh":1},{"translation":[-0.390625,0.25,-0.09375],"name":"sphere","mesh":2},{"translation":[-0.203125,0.34375,-0.21875],"name":"sphere","mesh":3},{"rotation":[0,-0.659345815100069,0,0.7518398074789774],"translation":[0.21875,0.19687500000000002,-0.265625],"name":"group"},{"translation":[0.25,0,0.0625],"name":"fotest trees","children":[0,1,2,3,4]}],"bufferViews":[{"buffer":0,"byteOffset":0,"byteLength":420,"target":34962,"byteStride":12},{"buffer":0,"byteOffset":420,"byteLength":420,"target":34962,"byteStride":12},{"buffer":0,"byteOffset":840,"byteLength":280,"target":34962,"byteStride":8},{"buffer":0,"byteOffset":1120,"byteLength":92,"target":34963},{"buffer":0,"byteOffset":1212,"byteLength":720,"target":34962,"byteStride":12},{"buffer":0,"byteOffset":1932,"byteLength":720,"target":34962,"byteStride":12},{"buffer":0,"byteOffset":2652,"byteLength":480,"target":34962,"byteStride":8},{"buffer":0,"byteOffset":3132,"byteLength":144,"target":34963},{"buffer":0,"byteOffset":3276,"byteLength":720,"target":34962,"byteStride":12},{"buffer":0,"byteOffset":3996,"byteLength":720,"target":34962,"byteStride":12},{"buffer":0,"byteOffset":4716,"byteLength":480,"target":34962,"byteStride":8},{"buffer":0,"byteOffset":5196,"byteLength":144,"target":34963},{"buffer":0,"byteOffset":5340,"byteLength":720,"target":34962,"byteStride":12},{"buffer":0,"byteOffset":6060,"byteLength":720,"target":34962,"byteStride":12},{"buffer":0,"byteOffset":6780,"byteLength":480,"target":34962,"byteStride":8},{"buffer":0,"byteOffset":7260,"byteLength":144,"target":34963}],"buffers":[{"byteLength":7404,"uri":"data:application/octet-stream;base64,"}],"accessors":[{"bufferView":0,"componentType":5126,"count":35,"max":[0.056535251438617706,0.5,-6.245004513516506e-17],"min":[-0.056535251438617706,0,-0.1180339902639389],"type":"VEC3"},{"bufferView":1,"componentType":5126,"count":35,"max":[0.9588696360588074,1,1],"min":[-0.9588696360588074,0,-0.781834065914154],"type":"VEC3"},{"bufferView":2,"componentType":5126,"count":35,"max":[0.5141343474388123,0.609375],"min":[0.15625,0.09375],"type":"VEC2"},{"bufferView":3,"componentType":5123,"count":45,"max":[34],"min":[0],"type":"SCALAR"},{"bufferView":4,"componentType":5126,"count":60,"max":[0.25,0.20624999701976776,0.1986377090215683],"min":[-0.25,-0.1875,-0.1986377090215683],"type":"VEC3"},{"bufferView":5,"componentType":5126,"count":60,"max":[0.8463637828826904,0.9335393309593201,1],"min":[-0.8463637828826904,-0.9590368270874023,-1],"type":"VEC3"},{"bufferView":6,"componentType":5126,"count":60,"max":[0.46484375,0.4375],"min":[0.0009604728547856212,0],"type":"VEC2"},{"bufferView":7,"componentType":5123,"count":72,"max":[59],"min":[0],"type":"SCALAR"},{"bufferView":8,"componentType":5126,"count":60,"max":[0.171875,0.12812499701976776,0.1361377090215683],"min":[-0.171875,-0.109375,-0.1361377090215683],"type":"VEC3"},{"bufferView":9,"componentType":5126,"count":60,"max":[0.8456128239631653,0.947579562664032,1],"min":[-0.8456128239631653,-0.9679681658744812,-1],"type":"VEC3"},{"bufferView":10,"componentType":5126,"count":60,"max":[0.6640625,0.6640625],"min":[0.00035510925226844847,0.125],"type":"VEC2"},{"bufferView":11,"componentType":5123,"count":72,"max":[59],"min":[0],"type":"SCALAR"},{"bufferView":12,"componentType":5126,"count":60,"max":[0.22812500596046448,0.15937499701976776,0.1361377090215683],"min":[-0.22812500596046448,-0.140625,-0.1361377090215683],"type":"VEC3"},{"bufferView":13,"componentType":5126,"count":60,"max":[0.7665172219276428,0.9426703453063965,1],"min":[-0.7665172219276428,-0.9648625254631042,-1],"type":"VEC3"},{"bufferView":14,"componentType":5126,"count":60,"max":[0.60546875,0.609375],"min":[0.00041180846164934337,0.09375],"type":"VEC2"},{"bufferView":15,"componentType":5123,"count":72,"max":[59],"min":[0],"type":"SCALAR"}],"materials":[{"pbrMetallicRoughness":{"metallicFactor":0,"roughnessFactor":1,"baseColorTexture":{"index":0}},"alphaMode":"MASK","alphaCutoff":0.05,"doubleSided":true}],"textures":[{"sampler":0,"source":0,"name":"Forest_trees"}],"samplers":[{"magFilter":9728,"minFilter":9728,"wrapS":33071,"wrapT":33071}],"images":[{"mimeType":"image/png","uri":"data:image/png;base64,"}],"meshes":[{"primitives":[{"mode":4,"attributes":{"POSITION":0,"NORMAL":1,"TEXCOORD_0":2},"indices":3,"material":0}]},{"primitives":[{"mode":4,"attributes":{"POSITION":4,"NORMAL":5,"TEXCOORD_0":6},"indices":7,"material":0}]},{"primitives":[{"mode":4,"attributes":{"POSITION":8,"NORMAL":9,"TEXCOORD_0":10},"indices":11,"material":0}]},{"primitives":[{"mode":4,"attributes":{"POSITION":12,"NORMAL":13,"TEXCOORD_0":14},"indices":15,"material":0}]}]}