{"asset":{"version":"2.0","generator":"Blockbench 5.1.1 glTF exporter"},"scenes":[{"nodes":[28],"name":"blockbench_export"}],"scene":0,"nodes":[{"rotation":[0,0,0.806444604267483,0.5913096483635817],"translation":[-0.10624999999999996,0.0875,-0.42499999999999993],"name":"plane","mesh":0},{"rotation":[0.15732953753471252,-0.11535878971049512,0.7909489973261558,0.5799477992754108],"translation":[-0.10624999999999996,0,-0.36249999999999993],"name":"plane","mesh":1},{"rotation":[-0.15732953753471232,0.11535878971049554,0.7909489973261563,0.5799477992754097],"translation":[-0.10624999999999996,0,-0.48749999999999993],"name":"plane","mesh":2},{"rotation":[0.10120764198789234,-0.16678503214499613,0.5088051754706657,0.8384849787980153],"name":"plane","mesh":3},{"rotation":[0,0,0.5187732581605219,0.8549118706729464],"translation":[0,0.0875,-0.06249999999999997],"name":"plane","mesh":4},{"rotation":[-0.10120764198789192,0.1667850321449964,0.5088051754706662,0.8384849787980152],"translation":[0,0,-0.1249999999999998],"name":"plane","mesh":5},{"rotation":[0,0.9659258262890683,0,0.25881904510252074],"translation":[0.13750000000000007,0,-0.26250000000000007],"name":"group6","children":[3,4,5]},{"rotation":[0.10120764198789234,-0.16678503214499613,0.5088051754706657,0.8384849787980153],"name":"plane","mesh":6},{"rotation":[0,0,0.5187732581605219,0.8549118706729464],"translation":[0,0.0875,-0.06250000000000008],"name":"plane","mesh":7},{"rotation":[-0.10120764198789192,0.1667850321449964,0.5088051754706662,0.8384849787980152],"translation":[0,0,-0.12499999999999994],"name":"plane","mesh":8},{"rotation":[0,0.25881904510252074,0,0.9659258262890683],"translation":[0.20000000000000007,0,-0.6062500000000001],"name":"group7","children":[7,8,9]},{"rotation":[0.10120764198789234,-0.16678503214499613,0.5088051754706657,0.8384849787980153],"name":"plane","mesh":9},{"rotation":[0,0,0.5187732581605219,0.8549118706729464],"translation":[0,0.0875,-0.0625],"name":"plane","mesh":10},{"rotation":[-0.10120764198789192,0.1667850321449964,0.5088051754706662,0.8384849787980152],"translation":[0,0,-0.12499999999999989],"name":"plane","mesh":11},{"rotation":[0,0.8549118706729465,0,0.5187732581605216],"translation":[-0.20624999999999996,0,-0.7000000000000001],"name":"group8","children":[11,12,13]},{"rotation":[0.10120764198789234,-0.16678503214499613,0.5088051754706657,0.8384849787980153],"translation":[0,-0.056249999999999994,-0.024999999999999994],"name":"plane","mesh":12},{"rotation":[0,0,0.5187732581605219,0.8549118706729464],"translation":[0,-0.0062500000000000056,-0.0625],"name":"plane","mesh":13},{"rotation":[-0.10120764198789192,0.1667850321449964,0.5088051754706662,0.8384849787980152],"translation":[0,-0.05,-0.11249999999999988],"name":"plane","mesh":14},{"rotation":[0,0.8549118706729465,0,0.5187732581605216],"translation":[-0.33125,0,-0.38750000000000007],"name":"group9","children":[15,16,17]},{"rotation":[0.10120764198789234,-0.16678503214499613,0.5088051754706657,0.8384849787980153],"translation":[0,-0.056249999999999994,-0.025000000000000022],"name":"plane","mesh":15},{"rotation":[0,0,0.5187732581605219,0.8549118706729464],"translation":[0,-0.0062500000000000056,-0.06250000000000006],"name":"plane","mesh":16},{"rotation":[-0.10120764198789192,0.1667850321449964,0.5088051754706662,0.8384849787980152],"translation":[0,-0.05,-0.11249999999999993],"name":"plane","mesh":17},{"rotation":[0,0.06540312923014306,0,0.9978589232386035],"translation":[0.3625,0,-0.28125],"name":"group10","children":[19,20,21]},{"rotation":[0.10120764198789234,-0.16678503214499613,0.5088051754706657,0.8384849787980153],"translation":[0,-0.056249999999999994,-0.025000000000000022],"name":"plane","mesh":18},{"rotation":[0,0,0.5187732581605219,0.8549118706729464],"translation":[0,-0.0062500000000000056,-0.06250000000000011],"name":"plane","mesh":19},{"rotation":[-0.10120764198789192,0.1667850321449964,0.5088051754706662,0.8384849787980152],"translation":[0,-0.05,-0.11249999999999993],"name":"plane","mesh":20},{"rotation":[0,0.3214394653031616,0,0.9469301294951057],"translation":[-0.125,0,0],"name":"group11","children":[23,24,25]},{"translation":[0.024999999999999956,0.043749999999999956,0.42499999999999993],"name":"group22","children":[0,1,2,6,10,14,18,22,26]},{"name":"plains","children":[27]}],"bufferViews":[{"buffer":0,"byteOffset":0,"byteLength":48,"target":34962,"byteStride":12},{"buffer":0,"byteOffset":48,"byteLength":48,"target":34962,"byteStride":12},{"buffer":0,"byteOffset":96,"byteLength":32,"target":34962,"byteStride":8},{"buffer":0,"byteOffset":128,"byteLength":12,"target":34963},{"buffer":0,"byteOffset":140,"byteLength":48,"target":34962,"byteStride":12},{"buffer":0,"byteOffset":188,"byteLength":48,"target":34962,"byteStride":12},{"buffer":0,"byteOffset":236,"byteLength":32,"target":34962,"byteStride":8},{"buffer":0,"byteOffset":268,"byteLength":12,"target":34963},{"buffer":0,"byteOffset":280,"byteLength":48,"target":34962,"byteStride":12},{"buffer":0,"byteOffset":328,"byteLength":48,"target":34962,"byteStride":12},{"buffer":0,"byteOffset":376,"byteLength":32,"target":34962,"byteStride":8},{"buffer":0,"byteOffset":408,"byteLength":12,"target":34963},{"buffer":0,"byteOffset":420,"byteLength":48,"target":34962,"byteStride":12},{"buffer":0,"byteOffset":468,"byteLength":48,"target":34962,"byteStride":12},{"buffer":0,"byteOffset":516,"byteLength":32,"target":34962,"byteStride":8},{"buffer":0,"byteOffset":548,"byteLength":12,"target":34963},{"buffer":0,"byteOffset":560,"byteLength":48,"target":34962,"byteStride":12},{"buffer":0,"byteOffset":608,"byteLength":48,"target":34962,"byteStride":12},{"buffer":0,"byteOffset":656,"byteLength":32,"target":34962,"byteStride":8},{"buffer":0,"byteOffset":688,"byteLength":12,"target":34963},{"buffer":0,"byteOffset":700,"byteLength":48,"target":34962,"byteStride":12},{"buffer":0,"byteOffset":748,"byteLength":48,"target":34962,"byteStride":12},{"buffer":0,"byteOffset":796,"byteLength":32,"target":34962,"byteStride":8},{"buffer":0,"byteOffset":828,"byteLength":12,"target":34963},{"buffer":0,"byteOffset":840,"byteLength":48,"target":34962,"byteStride":12},{"buffer":0,"byteOffset":888,"byteLength":48,"target":34962,"byteStride":12},{"buffer":0,"byteOffset":936,"byteLength":32,"target":34962,"byteStride":8},{"buffer":0,"byteOffset":968,"byteLength":12,"target":34963},{"buffer":0,"byteOffset":980,"byteLength":48,"target":34962,"byteStride":12},{"buffer":0,"byteOffset":1028,"byteLength":48,"target":34962,"byteStride":12},{"buffer":0,"byteOffset":1076,"byteLength":32,"target":34962,"byteStride":8},{"buffer":0,"byteOffset":1108,"byteLength":12,"target":34963},{"buffer":0,"byteOffset":1120,"byteLength":48,"target":34962,"byteStride":12},{"buffer":0,"byteOffset":1168,"byteLength":48,"target":34962,"byteStride":12},{"buffer":0,"byteOffset":1216,"byteLength":32,"target":34962,"byteStride":8},{"buffer":0,"byteOffset":1248,"byteLength":12,"target":34963},{"buffer":0,"byteOffset":1260,"byteLength":48,"target":34962,"byteStride":12},{"buffer":0,"byteOffset":1308,"byteLength":48,"target":34962,"byteStride":12},{"buffer":0,"byteOffset":1356,"byteLength":32,"target":34962,"byteStride":8},{"buffer":0,"byteOffset":1388,"byteLength":12,"target":34963},{"buffer":0,"byteOffset":1400,"byteLength":48,"target":34962,"byteStride":12},{"buffer":0,"byteOffset":1448,"byteLength":48,"target":34962,"byteStride":12},{"buffer":0,"byteOffset":1496,"byteLength":32,"target":34962,"byteStride":8},{"buffer":0,"byteOffset":1528,"byteLength":12,"target":34963},{"buffer":0,"byteOffset":1540,"byteLength":48,"target":34962,"byteStride":12},{"buffer":0,"byteOffset":1588,"byteLength":48,"target":34962,"byteStride":12},{"buffer":0,"byteOffset":1636,"byteLength":32,"target":34962,"byteStride":8},{"buffer":0,"byteOffset":1668,"byteLength":12,"target":34963},{"buffer":0,"byteOffset":1680,"byteLength":48,"target":34962,"byteStride":12},{"buffer":0,"byteOffset":1728,"byteLength":48,"target":34962,"byteStride":12},{"buffer":0,"byteOffset":1776,"byteLength":32,"target":34962,"byteStride":8},{"buffer":0,"byteOffset":1808,"byteLength":12,"target":34963},{"buffer":0,"byteOffset":1820,"byteLength":48,"target":34962,"byteStride":12},{"buffer":0,"byteOffset":1868,"byteLength":48,"target":34962,"byteStride":12},{"buffer":0,"byteOffset":1916,"byteLength":32,"target":34962,"byteStride":8},{"buffer":0,"byteOffset":1948,"byteLength":12,"target":34963},{"buffer":0,"byteOffset":1960,"byteLength":48,"target":34962,"byteStride":12},{"buffer":0,"byteOffset":2008,"byteLength":48,"target":34962,"byteStride":12},{"buffer":0,"byteOffset":2056,"byteLength":32,"target":34962,"byteStride":8},{"buffer":0,"byteOffset":2088,"byteLength":12,"target":34963},{"buffer":0,"byteOffset":2100,"byteLength":48,"target":34962,"byteStride":12},{"buffer":0,"byteOffset":2148,"byteLength":48,"target":34962,"byteStride":12},{"buffer":0,"byteOffset":2196,"byteLength":32,"target":34962,"byteStride":8},{"buffer":0,"byteOffset":2228,"byteLength":12,"target":34963},{"buffer":0,"byteOffset":2240,"byteLength":48,"target":34962,"byteStride":12},{"buffer":0,"byteOffset":2288,"byteLength":48,"target":34962,"byteStride":12},{"buffer":0,"byteOffset":2336,"byteLength":32,"target":34962,"byteStride":8},{"buffer":0,"byteOffset":2368,"byteLength":12,"target":34963},{"buffer":0,"byteOffset":2380,"byteLength":48,"target":34962,"byteStride":12},{"buffer":0,"byteOffset":2428,"byteLength":48,"target":34962,"byteStride":12},{"buffer":0,"byteOffset":2476,"byteLength":32,"target":34962,"byteStride":8},{"buffer":0,"byteOffset":2508,"byteLength":12,"target":34963},{"buffer":0,"byteOffset":2520,"byteLength":48,"target":34962,"byteStride":12},{"buffer":0,"byteOffset":2568,"byteLength":48,"target":34962,"byteStride":12},{"buffer":0,"byteOffset":2616,"byteLength":32,"target":34962,"byteStride":8},{"buffer":0,"byteOffset":2648,"byteLength":12,"target":34963},{"buffer":0,"byteOffset":2660,"byteLength":48,"target":34962,"byteStride":12},{"buffer":0,"byteOffset":2708,"byteLength":48,"target":34962,"byteStride":12},{"buffer":0,"byteOffset":2756,"byteLength":32,"target":34962,"byteStride":8},{"buffer":0,"byteOffset":2788,"byteLength":12,"target":34963},{"buffer":0,"byteOffset":2800,"byteLength":48,"target":34962,"byteStride":12},{"buffer":0,"byteOffset":2848,"byteLength":48,"target":34962,"byteStride":12},{"buffer":0,"byteOffset":2896,"byteLength":32,"target":34962,"byteStride":8},{"buffer":0,"byteOffset":2928,"byteLength":12,"target":34963}],"buffers":[{"byteLength":2940,"uri":"data:application/octet-stream;base64,"}],"accessors":[{"bufferView":0,"componentType":5126,"count":4,"max":[0.25,1.3877787807814457e-16,0.03125],"min":[-0.25,-8.326672684688674e-17,-0.03125],"type":"VEC3"},{"bufferView":1,"componentType":5126,"count":4,"max":[1.4802974102831747e-16,1,3.552713678800501e-15],"min":[1.4802974102831747e-16,1,3.552713678800501e-15],"type":"VEC3"},{"bufferView":2,"componentType":5126,"count":4,"max":[0.12468935549259186,0.07804697751998901],"min":[0.000310647941660136,0.0625],"type":"VEC2"},{"bufferView":3,"componentType":5123,"count":6,"max":[3],"min":[0],"type":"SCALAR"},{"bufferView":4,"componentType":5126,"count":4,"max":[0.125,1.3877787807814457e-16,0.03125],"min":[-0.125,-8.326672684688674e-17,-0.03125],"type":"VEC3"},{"bufferView":5,"componentType":5126,"count":4,"max":[2.9605948205663494e-16,1,3.552713678800501e-15],"min":[2.9605948205663494e-16,1,3.552713678800501e-15],"type":"VEC3"},{"bufferView":6,"componentType":5126,"count":4,"max":[0.34314316511154175,0.17157244682312012],"min":[0.28185683488845825,0.15625],"type":"VEC2"},{"bufferView":7,"componentType":5123,"count":6,"max":[3],"min":[0],"type":"SCALAR"},{"bufferView":8,"componentType":5126,"count":4,"max":[0.125,1.3877787807814457e-16,0.03125],"min":[-0.125,-8.326672684688674e-17,-0.03125],"type":"VEC3"},{"bufferView":9,"componentType":5126,"count":4,"max":[2.9605948205663494e-16,1,3.552713678800501e-15],"min":[2.9605948205663494e-16,1,3.552713678800501e-15],"type":"VEC3"},{"bufferView":10,"componentType":5126,"count":4,"max":[0.35876816511154175,0.14032244682312012],"min":[0.29748183488845825,0.125],"type":"VEC2"},{"bufferView":11,"componentType":5123,"count":6,"max":[3],"min":[0],"type":"SCALAR"},{"bufferView":12,"componentType":5126,"count":4,"max":[0.125,1.3877787807814457e-16,0.03125],"min":[-0.125,-8.326672684688674e-17,-0.03125],"type":"VEC3"},{"bufferView":13,"componentType":5126,"count":4,"max":[2.9605948205663494e-16,1,3.552713678800501e-15],"min":[2.9605948205663494e-16,1,3.552713678800501e-15],"type":"VEC3"},{"bufferView":14,"componentType":5126,"count":4,"max":[0.37439316511154175,0.2965724468231201],"min":[0.31310683488845825,0.28125],"type":"VEC2"},{"bufferView":15,"componentType":5123,"count":6,"max":[3],"min":[0],"type":"SCALAR"},{"bufferView":16,"componentType":5126,"count":4,"max":[0.25,1.3877787807814457e-16,0.03125],"min":[-0.25,-8.326672684688674e-17,-0.03125],"type":"VEC3"},{"bufferView":17,"componentType":5126,"count":4,"max":[1.4802974102831747e-16,1,3.552713678800501e-15],"min":[1.4802974102831747e-16,1,3.552713678800501e-15],"type":"VEC3"},{"bufferView":18,"componentType":5126,"count":4,"max":[0.12468935549259186,0.10929697751998901],"min":[0.000310647941660136,0.09375],"type":"VEC2"},{"bufferView":19,"componentType":5123,"count":6,"max":[3],"min":[0],"type":"SCALAR"},{"bufferView":20,"componentType":5126,"count":4,"max":[0.125,1.3877787807814457e-16,0.03125],"min":[-0.125,-8.326672684688674e-17,-0.03125],"type":"VEC3"},{"bufferView":21,"componentType":5126,"count":4,"max":[2.9605948205663494e-16,1,3.552713678800501e-15],"min":[2.9605948205663494e-16,1,3.552713678800501e-15],"type":"VEC3"},{"bufferView":22,"componentType":5126,"count":4,"max":[0.37439316511154175,0.3278224468231201],"min":[0.31310683488845825,0.3125],"type":"VEC2"},{"bufferView":23,"componentType":5123,"count":6,"max":[3],"min":[0],"type":"SCALAR"},{"bufferView":24,"componentType":5126,"count":4,"max":[0.125,1.3877787807814457e-16,0.03125],"min":[-0.125,-8.326672684688674e-17,-0.03125],"type":"VEC3"},{"bufferView":25,"componentType":5126,"count":4,"max":[2.9605948205663494e-16,1,3.552713678800501e-15],"min":[2.9605948205663494e-16,1,3.552713678800501e-15],"type":"VEC3"},{"bufferView":26,"componentType":5126,"count":4,"max":[0.061893168836832047,0.3590724468231201],"min":[0.0006068322691135108,0.34375],"type":"VEC2"},{"bufferView":27,"componentType":5123,"count":6,"max":[3],"min":[0],"type":"SCALAR"},{"bufferView":28,"componentType":5126,"count":4,"max":[0.25,1.3877787807814457e-16,0.03125],"min":[-0.25,-8.326672684688674e-17,-0.03125],"type":"VEC3"},{"bufferView":29,"componentType":5126,"count":4,"max":[1.4802974102831747e-16,1,3.552713678800501e-15],"min":[1.4802974102831747e-16,1,3.552713678800501e-15],"type":"VEC3"},{"bufferView":30,"componentType":5126,"count":4,"max":[0.21843935549259186,0.015546977519989014],"min":[0.09406064450740814,0],"type":"VEC2"},{"bufferView":31,"componentType":5123,"count":6,"max":[3],"min":[0],"type":"SCALAR"},{"bufferView":32,"componentType":5126,"count":4,"max":[0.125,1.3877787807814457e-16,0.03125],"min":[-0.125,-8.326672684688674e-17,-0.03125],"type":"VEC3"},{"bufferView":33,"componentType":5126,"count":4,"max":[2.9605948205663494e-16,1,3.552713678800501e-15],"min":[2.9605948205663494e-16,1,3.552713678800501e-15],"type":"VEC3"},{"bufferView":34,"componentType":5126,"count":4,"max":[0.14001816511154175,0.3590724468231201],"min":[0.07873183488845825,0.34375],"type":"VEC2"},{"bufferView":35,"componentType":5123,"count":6,"max":[3],"min":[0],"type":"SCALAR"},{"bufferView":36,"componentType":5126,"count":4,"max":[0.125,1.3877787807814457e-16,0.03125],"min":[-0.125,-8.326672684688674e-17,-0.03125],"type":"VEC3"},{"bufferView":37,"componentType":5126,"count":4,"max":[2.9605948205663494e-16,1,3.552713678800501e-15],"min":[2.9605948205663494e-16,1,3.552713678800501e-15],"type":"VEC3"},{"bufferView":38,"componentType":5126,"count":4,"max":[0.21814316511154175,0.3590724468231201],"min":[0.15685683488845825,0.34375],"type":"VEC2"},{"bufferView":39,"componentType":5123,"count":6,"max":[3],"min":[0],"type":"SCALAR"},{"bufferView":40,"componentType":5126,"count":4,"max":[0.25,1.3877787807814457e-16,0.03125],"min":[-0.25,-8.326672684688674e-17,-0.03125],"type":"VEC3"},{"bufferView":41,"componentType":5126,"count":4,"max":[1.4802974102831747e-16,1,3.552713678800501e-15],"min":[1.4802974102831747e-16,1,3.552713678800501e-15],"type":"VEC3"},{"bufferView":42,"componentType":5126,"count":4,"max":[0.21843935549259186,0.046796977519989014],"min":[0.09406064450740814,0.03125],"type":"VEC2"},{"bufferView":43,"componentType":5123,"count":6,"max":[3],"min":[0],"type":"SCALAR"},{"bufferView":44,"componentType":5126,"count":4,"max":[0.125,1.3877787807814457e-16,0.03125],"min":[-0.125,-8.326672684688674e-17,-0.03125],"type":"VEC3"},{"bufferView":45,"componentType":5126,"count":4,"max":[2.9605948205663494e-16,1,3.552713678800501e-15],"min":[2.9605948205663494e-16,1,3.552713678800501e-15],"type":"VEC3"},{"bufferView":46,"componentType":5126,"count":4,"max":[0.40564316511154175,0.20282244682312012],"min":[0.34435683488845825,0.1875],"type":"VEC2"},{"bufferView":47,"componentType":5123,"count":6,"max":[3],"min":[0],"type":"SCALAR"},{"bufferView":48,"componentType":5126,"count":4,"max":[0.125,2.7755575615628914e-17,0.012500000186264515],"min":[-0.125,2.7755575615628914e-17,-0.012500000186264515],"type":"VEC3"},{"bufferView":49,"componentType":5126,"count":4,"max":[0,1,0],"min":[0,1,0],"type":"VEC3"},{"bufferView":50,"componentType":5126,"count":4,"max":[0.4999004900455475,0.47498011589050293],"min":[0.4375995099544525,0.46875],"type":"VEC2"},{"bufferView":51,"componentType":5123,"count":6,"max":[3],"min":[0],"type":"SCALAR"},{"bufferView":52,"componentType":5126,"count":4,"max":[0.125,2.7755575615628914e-17,0.03125],"min":[-0.125,2.7755575615628914e-17,-0.03125],"type":"VEC3"},{"bufferView":53,"componentType":5126,"count":4,"max":[0,1,0],"min":[0,1,0],"type":"VEC3"},{"bufferView":54,"componentType":5126,"count":4,"max":[0.40564313530921936,0.2340715527534485],"min":[0.34435686469078064,0.21875],"type":"VEC2"},{"bufferView":55,"componentType":5123,"count":6,"max":[3],"min":[0],"type":"SCALAR"},{"bufferView":56,"componentType":5126,"count":4,"max":[0.125,2.7755575615628914e-17,0.01875000074505806],"min":[-0.125,2.7755575615628914e-17,-0.01875000074505806],"type":"VEC3"},{"bufferView":57,"componentType":5126,"count":4,"max":[0,1,0],"min":[0,1,0],"type":"VEC3"},{"bufferView":58,"componentType":5126,"count":4,"max":[0.5154023766517639,0.29055821895599365],"min":[0.4533475935459137,0.28125],"type":"VEC2"},{"bufferView":59,"componentType":5123,"count":6,"max":[3],"min":[0],"type":"SCALAR"},{"bufferView":60,"componentType":5126,"count":4,"max":[0.125,2.7755575615628914e-17,0.012500000186264515],"min":[-0.125,2.7755575615628914e-17,-0.012500000186264515],"type":"VEC3"},{"bufferView":61,"componentType":5126,"count":4,"max":[0,1,0],"min":[0,1,0],"type":"VEC3"},{"bufferView":62,"componentType":5126,"count":4,"max":[0.5311504602432251,0.44373011589050293],"min":[0.4688495099544525,0.4375],"type":"VEC2"},{"bufferView":63,"componentType":5123,"count":6,"max":[3],"min":[0],"type":"SCALAR"},{"bufferView":64,"componentType":5126,"count":4,"max":[0.125,2.7755575615628914e-17,0.03125],"min":[-0.125,2.7755575615628914e-17,-0.03125],"type":"VEC3"},{"bufferView":65,"componentType":5126,"count":4,"max":[0,1,0],"min":[0,1,0],"type":"VEC3"},{"bufferView":66,"componentType":5126,"count":4,"max":[0.29626813530921936,0.3590715527534485],"min":[0.23498184978961945,0.34375],"type":"VEC2"},{"bufferView":67,"componentType":5123,"count":6,"max":[3],"min":[0],"type":"SCALAR"},{"bufferView":68,"componentType":5126,"count":4,"max":[0.125,2.7755575615628914e-17,0.01875000074505806],"min":[-0.125,2.7755575615628914e-17,-0.01875000074505806],"type":"VEC3"},{"bufferView":69,"componentType":5126,"count":4,"max":[0,1,0],"min":[0,1,0],"type":"VEC3"},{"bufferView":70,"componentType":5126,"count":4,"max":[0.062277402728796005,0.47805821895599365],"min":[0.00022259879915509373,0.46875],"type":"VEC2"},{"bufferView":71,"componentType":5123,"count":6,"max":[3],"min":[0],"type":"SCALAR"},{"bufferView":72,"componentType":5126,"count":4,"max":[0.125,2.7755575615628914e-17,0.012500000186264515],"min":[-0.125,2.7755575615628914e-17,-0.012500000186264515],"type":"VEC3"},{"bufferView":73,"componentType":5126,"count":4,"max":[0,1,0],"min":[0,1,0],"type":"VEC3"},{"bufferView":74,"componentType":5126,"count":4,"max":[0.06240047886967659,0.5062301158905029],"min":[0.0000995225491351448,0.5],"type":"VEC2"},{"bufferView":75,"componentType":5123,"count":6,"max":[3],"min":[0],"type":"SCALAR"},{"bufferView":76,"componentType":5126,"count":4,"max":[0.125,2.7755575615628914e-17,0.03125],"min":[-0.125,2.7755575615628914e-17,-0.03125],"type":"VEC3"},{"bufferView":77,"componentType":5126,"count":4,"max":[0,1,0],"min":[0,1,0],"type":"VEC3"},{"bufferView":78,"componentType":5126,"count":4,"max":[0.40564313530921936,0.2653215527534485],"min":[0.34435686469078064,0.25],"type":"VEC2"},{"bufferView":79,"componentType":5123,"count":6,"max":[3],"min":[0],"type":"SCALAR"},{"bufferView":80,"componentType":5126,"count":4,"max":[0.125,2.7755575615628914e-17,0.01875000074505806],"min":[-0.125,2.7755575615628914e-17,-0.01875000074505806],"type":"VEC3"},{"bufferView":81,"componentType":5126,"count":4,"max":[0,1,0],"min":[0,1,0],"type":"VEC3"},{"bufferView":82,"componentType":5126,"count":4,"max":[0.1404024064540863,0.47805821895599365],"min":[0.0783476009964943,0.46875],"type":"VEC2"},{"bufferView":83,"componentType":5123,"count":6,"max":[3],"min":[0],"type":"SCALAR"}],"materials":[{"pbrMetallicRoughness":{"metallicFactor":0,"roughnessFactor":1,"baseColorTexture":{"index":0}},"alphaMode":"MASK","alphaCutoff":0.05,"doubleSided":true}],"textures":[{"sampler":0,"source":0,"name":"Plains_prop"}],"samplers":[{"magFilter":9728,"minFilter":9728,"wrapS":33071,"wrapT":33071}],"images":[{"mimeType":"image/png","uri":"data:image/png;base64,"}],"meshes":[{"primitives":[{"mode":4,"attributes":{"POSITION":0,"NORMAL":1,"TEXCOORD_0":2},"indices":3,"material":0}]},{"primitives":[{"mode":4,"attributes":{"POSITION":4,"NORMAL":5,"TEXCOORD_0":6},"indices":7,"material":0}]},{"primitives":[{"mode":4,"attributes":{"POSITION":8,"NORMAL":9,"TEXCOORD_0":10},"indices":11,"material":0}]},{"primitives":[{"mode":4,"attributes":{"POSITION":12,"NORMAL":13,"TEXCOORD_0":14},"indices":15,"material":0}]},{"primitives":[{"mode":4,"attributes":{"POSITION":16,"NORMAL":17,"TEXCOORD_0":18},"indices":19,"material":0}]},{"primitives":[{"mode":4,"attributes":{"POSITION":20,"NORMAL":21,"TEXCOORD_0":22},"indices":23,"material":0}]},{"primitives":[{"mode":4,"attributes":{"POSITION":24,"NORMAL":25,"TEXCOORD_0":26},"indices":27,"material":0}]},{"primitives":[{"mode":4,"attributes":{"POSITION":28,"NORMAL":29,"TEXCOORD_0":30},"indices":31,"material":0}]},{"primitives":[{"mode":4,"attributes":{"POSITION":32,"NORMAL":33,"TEXCOORD_0":34},"indices":35,"material":0}]},{"primitives":[{"mode":4,"attributes":{"POSITION":36,"NORMAL":37,"TEXCOORD_0":38},"indices":39,"material":0}]},{"primitives":[{"mode":4,"attributes":{"POSITION":40,"NORMAL":41,"TEXCOORD_0":42},"indices":43,"material":0}]},{"primitives":[{"mode":4,"attributes":{"POSITION":44,"NORMAL":45,"TEXCOORD_0":46},"indices":47,"material":0}]},{"primitives":[{"mode":4,"attributes":{"POSITION":48,"NORMAL":49,"TEXCOORD_0":50},"indices":51,"material":0}]},{"primitives":[{"mode":4,"attributes":{"POSITION":52,"NORMAL":53,"TEXCOORD_0":54},"indices":55,"material":0}]},{"primitives":[{"mode":4,"attributes":{"POSITION":56,"NORMAL":57,"TEXCOORD_0":58},"indices":59,"material":0}]},{"primitives":[{"mode":4,"attributes":{"POSITION":60,"NORMAL":61,"TEXCOORD_0":62},"indices":63,"material":0}]},{"primitives":[{"mode":4,"attributes":{"POSITION":64,"NORMAL":65,"TEXCOORD_0":66},"indices":67,"material":0}]},{"primitives":[{"mode":4,"attributes":{"POSITION":68,"NORMAL":69,"TEXCOORD_0":70},"indices":71,"material":0}]},{"primitives":[{"mode":4,"attributes":{"POSITION":72,"NORMAL":73,"TEXCOORD_0":74},"indices":75,"material":0}]},{"primitives":[{"mode":4,"attributes":{"POSITION":76,"NORMAL":77,"TEXCOORD_0":78},"indices":79,"material":0}]},{"primitives":[{"mode":4,"attributes":{"POSITION":80,"NORMAL":81,"TEXCOORD_0":82},"indices":83,"material":0}]}]}