{"asset":{"version":"2.0","generator":"Blockbench 5.1.1 glTF exporter"},"scenes":[{"nodes":[4],"name":"blockbench_export"}],"scene":0,"nodes":[{"translation":[-0.15000000000000005,-0.23125,0.22499999999999998],"name":"sphere","mesh":0},{"rotation":[0,0.9320078692827984,0,0.3624380382837017],"translation":[0.06874999999999995,-0.23125,-0.18125000000000002],"name":"sphere","mesh":1},{"rotation":[0,0.9320078692827984,0,0.3624380382837017],"translation":[-0.03749999999999999,-0.23125,-0.46249999999999947],"name":"sphere","mesh":2},{"rotation":[0,-0.6087614290087207,0,0.7933533402912352],"translation":[-0.056249999999999994,-0.2749999999999999,0.44687499999999947],"name":"sphere","mesh":3},{"name":"mountain props","children":[0,1,2,3]}],"bufferViews":[{"buffer":0,"byteOffset":0,"byteLength":420,"target":34962,"byteStride":12},{"buffer":0,"byteOffset":420,"byteLength":420,"target":34962,"byteStride":12},{"buffer":0,"byteOffset":840,"byteLength":280,"target":34962,"byteStride":8},{"buffer":0,"byteOffset":1120,"byteLength":92,"target":34963},{"buffer":0,"byteOffset":1212,"byteLength":420,"target":34962,"byteStride":12},{"buffer":0,"byteOffset":1632,"byteLength":420,"target":34962,"byteStride":12},{"buffer":0,"byteOffset":2052,"byteLength":280,"target":34962,"byteStride":8},{"buffer":0,"byteOffset":2332,"byteLength":92,"target":34963},{"buffer":0,"byteOffset":2424,"byteLength":420,"target":34962,"byteStride":12},{"buffer":0,"byteOffset":2844,"byteLength":420,"target":34962,"byteStride":12},{"buffer":0,"byteOffset":3264,"byteLength":280,"target":34962,"byteStride":8},{"buffer":0,"byteOffset":3544,"byteLength":92,"target":34963},{"buffer":0,"byteOffset":3636,"byteLength":420,"target":34962,"byteStride":12},{"buffer":0,"byteOffset":4056,"byteLength":420,"target":34962,"byteStride":12},{"buffer":0,"byteOffset":4476,"byteLength":280,"target":34962,"byteStride":8},{"buffer":0,"byteOffset":4756,"byteLength":92,"target":34963}],"buffers":[{"byteLength":4848,"uri":"data:application/octet-stream;base64,"}],"accessors":[{"bufferView":0,"componentType":5126,"count":35,"max":[0.25903695821762085,0.838942289352417,0.2142627090215683],"min":[-0.32153695821762085,0.171875,-0.6289831399917603],"type":"VEC3"},{"bufferView":1,"componentType":5126,"count":35,"max":[0.9070562124252319,0.828087329864502,0.8717855215072632],"min":[-0.8691916465759277,0.14487434923648834,-0.9342105388641357],"type":"VEC3"},{"bufferView":2,"componentType":5126,"count":35,"max":[0.6796875,0.7469639778137207],"min":[0.09375,0],"type":"VEC2"},{"bufferView":3,"componentType":5123,"count":45,"max":[34],"min":[0],"type":"SCALAR"},{"bufferView":4,"componentType":5126,"count":35,"max":[0.25903695821762085,1.0625,0.24314536154270172],"min":[-0.4059857428073883,0.171875,-0.4062948524951935],"type":"VEC3"},{"bufferView":5,"componentType":5126,"count":35,"max":[0.9185478687286377,0.49148306250572205,0.9472716450691223],"min":[-0.9602916836738586,0.2261829674243927,-0.903429388999939],"type":"VEC3"},{"bufferView":6,"componentType":5126,"count":35,"max":[0.4253234267234802,0.5097247362136841],"min":[0.000060514576034620404,0],"type":"VEC2"},{"bufferView":7,"componentType":5123,"count":45,"max":[34],"min":[0],"type":"SCALAR"},{"bufferView":8,"componentType":5126,"count":35,"max":[0.13403695821762085,0.4375,0.03834720328450203],"min":[-0.2809857428073883,0.171875,-0.3281698524951935],"type":"VEC3"},{"bufferView":9,"componentType":5126,"count":35,"max":[0.8867719173431396,0.9504466652870178,0.9687186479568481],"min":[-0.8471882343292236,0.21335914731025696,-0.8887925744056702],"type":"VEC3"},{"bufferView":10,"componentType":5126,"count":35,"max":[0.7644610404968262,0.7697296142578125],"min":[0.34375,0],"type":"VEC2"},{"bufferView":11,"componentType":5123,"count":45,"max":[34],"min":[0],"type":"SCALAR"},{"bufferView":12,"componentType":5126,"count":35,"max":[0.10278695821762085,0.375,0.03834720328450203],"min":[-0.2497357428073883,0.234375,-0.3281698524951935],"type":"VEC3"},{"bufferView":13,"componentType":5126,"count":35,"max":[0.8610596656799316,0.9846770763397217,0.9140903353691101],"min":[-0.7739906907081604,0.3712308406829834,-0.7643470168113708],"type":"VEC3"},{"bufferView":14,"componentType":5126,"count":35,"max":[0.7890625,0.78125],"min":[0.078125,0.09375],"type":"VEC2"},{"bufferView":15,"componentType":5123,"count":45,"max":[34],"min":[0],"type":"SCALAR"}],"materials":[{"pbrMetallicRoughness":{"metallicFactor":0,"roughnessFactor":1,"baseColorTexture":{"index":0}},"alphaMode":"MASK","alphaCutoff":0.05,"doubleSided":true}],"textures":[{"sampler":0,"source":0,"name":"Mountain_prop"}],"samplers":[{"magFilter":9728,"minFilter":9728,"wrapS":33071,"wrapT":33071}],"images":[{"mimeType":"image/png","uri":"data:image/png;base64,"}],"meshes":[{"primitives":[{"mode":4,"attributes":{"POSITION":0,"NORMAL":1,"TEXCOORD_0":2},"indices":3,"material":0}]},{"primitives":[{"mode":4,"attributes":{"POSITION":4,"NORMAL":5,"TEXCOORD_0":6},"indices":7,"material":0}]},{"primitives":[{"mode":4,"attributes":{"POSITION":8,"NORMAL":9,"TEXCOORD_0":10},"indices":11,"material":0}]},{"primitives":[{"mode":4,"attributes":{"POSITION":12,"NORMAL":13,"TEXCOORD_0":14},"indices":15,"material":0}]}]}