{"asset":{"version":"2.0","generator":"Blockbench 5.1.1 glTF exporter"},"scenes":[{"nodes":[3],"name":"blockbench_export"}],"scene":0,"nodes":[{"rotation":[0,0.9320078692827984,0,0.3624380382837017],"translation":[0.015625,-0.23125,-0.28125],"name":"sphere","mesh":0},{"rotation":[0,-0.6087614290087207,0,0.7933533402912352],"translation":[-0.046875,-0.2749999999999999,0.140625],"name":"sphere","mesh":1},{"rotation":[0,-0.9914448613738104,0,0.1305261922200515],"translation":[-0.28125,-0.2749999999999999,-0.09375],"name":"sphere","mesh":2},{"name":"mountain props","children":[0,1,2]}],"bufferViews":[{"buffer":0,"byteOffset":0,"byteLength":420,"target":34962,"byteStride":12},{"buffer":0,"byteOffset":420,"byteLength":420,"target":34962,"byteStride":12},{"buffer":0,"byteOffset":840,"byteLength":280,"target":34962,"byteStride":8},{"buffer":0,"byteOffset":1120,"byteLength":92,"target":34963},{"buffer":0,"byteOffset":1212,"byteLength":420,"target":34962,"byteStride":12},{"buffer":0,"byteOffset":1632,"byteLength":420,"target":34962,"byteStride":12},{"buffer":0,"byteOffset":2052,"byteLength":280,"target":34962,"byteStride":8},{"buffer":0,"byteOffset":2332,"byteLength":92,"target":34963},{"buffer":0,"byteOffset":2424,"byteLength":420,"target":34962,"byteStride":12},{"buffer":0,"byteOffset":2844,"byteLength":420,"target":34962,"byteStride":12},{"buffer":0,"byteOffset":3264,"byteLength":280,"target":34962,"byteStride":8},{"buffer":0,"byteOffset":3544,"byteLength":92,"target":34963}],"buffers":[{"byteLength":3636,"uri":"data:application/octet-stream;base64,"}],"accessors":[{"bufferView":0,"componentType":5126,"count":35,"max":[0.13403695821762085,0.4375,0.03834720328450203],"min":[-0.2809857428073883,0.171875,-0.3281698524951935],"type":"VEC3"},{"bufferView":1,"componentType":5126,"count":35,"max":[0.8867719173431396,0.9504466652870178,0.9687186479568481],"min":[-0.8471882343292236,0.21335914731025696,-0.8887925744056702],"type":"VEC3"},{"bufferView":2,"componentType":5126,"count":35,"max":[0.8019359111785889,0.7341295480728149],"min":[0.11071093380451202,0.03125],"type":"VEC2"},{"bufferView":3,"componentType":5123,"count":45,"max":[34],"min":[0],"type":"SCALAR"},{"bufferView":4,"componentType":5126,"count":35,"max":[0.10278695821762085,0.375,0.03834720328450203],"min":[-0.2497357428073883,0.234375,-0.3281698524951935],"type":"VEC3"},{"bufferView":5,"componentType":5126,"count":35,"max":[0.8610596656799316,0.9846770763397217,0.9140903353691101],"min":[-0.7739906907081604,0.3712308406829834,-0.7643470168113708],"type":"VEC3"},{"bufferView":6,"componentType":5126,"count":35,"max":[0.7933202981948853,0.765625],"min":[0.000018907889170804992,0.0625],"type":"VEC2"},{"bufferView":7,"componentType":5123,"count":45,"max":[34],"min":[0],"type":"SCALAR"},{"bufferView":8,"componentType":5126,"count":35,"max":[0.024661960080266,0.375,-0.05540279671549797],"min":[-0.1716107428073883,0.234375,-0.23441985249519348],"type":"VEC3"},{"bufferView":9,"componentType":5126,"count":35,"max":[0.8968721628189087,0.9420983791351318,0.971493661403656],"min":[-0.8639736771583557,0.19740593433380127,-0.8945220708847046],"type":"VEC3"},{"bufferView":10,"componentType":5126,"count":35,"max":[0.4678884446620941,0.76171875],"min":[0.078125,0],"type":"VEC2"},{"bufferView":11,"componentType":5123,"count":45,"max":[34],"min":[0],"type":"SCALAR"}],"materials":[{"pbrMetallicRoughness":{"metallicFactor":0,"roughnessFactor":1,"baseColorTexture":{"index":0}},"alphaMode":"MASK","alphaCutoff":0.05,"doubleSided":true}],"textures":[{"sampler":0,"source":0,"name":"Mountain_prop"}],"samplers":[{"magFilter":9728,"minFilter":9728,"wrapS":33071,"wrapT":33071}],"images":[{"mimeType":"image/png","uri":"data:image/png;base64,"}],"meshes":[{"primitives":[{"mode":4,"attributes":{"POSITION":0,"NORMAL":1,"TEXCOORD_0":2},"indices":3,"material":0}]},{"primitives":[{"mode":4,"attributes":{"POSITION":4,"NORMAL":5,"TEXCOORD_0":6},"indices":7,"material":0}]},{"primitives":[{"mode":4,"attributes":{"POSITION":8,"NORMAL":9,"TEXCOORD_0":10},"indices":11,"material":0}]}]}